<svg xmlns="http://www.w3.org/2000/svg" viewBox="0 0 744.13 232.15"><defs><style>.cls-1{fill:#fff;}.cls-2{fill:#8dd2f1;}</style></defs><g id="Layer_2" data-name="Layer 2"><g id="Layer_1-2" data-name="Layer 1"><path id="SVGID" class="cls-1" d="M252.79,2.38a34.45,34.45,0,0,0-22.47,18.77c-3.7,7.54-4.73,15.82-4.73,24.1V67.57H202.53v21h23.06V144c0,1.18.15,1.75.15,3.23H247V88.42h34.3v-21H247c0-7-.3-20.25.15-26.76.74-11.68,6.95-18.48,17.15-20,9.61-1.33,16.85,1.77,21,8.28l19.81-8.87A34.59,34.59,0,0,0,283.25,2.38,54.06,54.06,0,0,0,268,.16a52.92,52.92,0,0,0-15.18,2.22"/><path class="cls-1" d="M744.13,138.65A12.12,12.12,0,1,1,732,126.53a12,12,0,0,1,12.12,12.12"/><path class="cls-2" d="M458,194.71c0-8.57-5.91-14.93-14.64-14.93s-14,6.8-14,14.93,5.17,14.93,14,14.93S458,203.28,458,194.71m-34.44,0c0-11.09,7.39-20.25,19.22-20.25A17.06,17.06,0,0,1,458,183v-5.62a1.84,1.84,0,0,1,1.63-2.07h2.07a1.87,1.87,0,0,1,2.07,1.77v34.74a2,2,0,0,1-1.77,2.07h-2.07a1.84,1.84,0,0,1-2.07-1.63v-5.91a16.5,16.5,0,0,1-15.23,8.43c-11.54,0-19.08-9-19.08-20.1"/><path class="cls-2" d="M518.14,194.71c0-8.57-5.91-14.93-14.64-14.93s-14,6.8-14,14.93,5.17,14.93,14,14.93c8.58-.15,14.64-6.36,14.64-14.93M489,228a2.27,2.27,0,0,1-.74-2.81V225l.59-.89c.59-1.33,1.48-1.48,2.81-.59a21.09,21.09,0,0,0,12.27,3.4c8.43,0,14-5.17,14-13.9v-6.65a16.5,16.5,0,0,1-15.23,8.43c-11.68,0-19.22-9-19.22-20.1s7.39-20.25,19.22-20.25A17.06,17.06,0,0,1,518,183v-5.62a1.84,1.84,0,0,1,1.63-2.07h2.22a2,2,0,0,1,2.07,1.77v36.37c0,12.42-9,18.63-20,18.63A24.44,24.44,0,0,1,489,228"/><path class="cls-2" d="M577.42,190c-1.77-8-7.84-10.35-13.16-10.35A14.58,14.58,0,0,0,549.92,190Zm-34,4.88a20.29,20.29,0,0,1,20.1-20.4h.59c9.46,0,18.33,5.62,19.22,18,.3,1.33-.59,2.07-2.07,2.07H549.33c-.59,8.57,6.21,14.93,15.67,14.93a19.76,19.76,0,0,0,11.68-3.84,1.94,1.94,0,0,1,2.81.29l.59.59a2,2,0,0,1,0,3c-.15.15-.29.3-.44.3a22.09,22.09,0,0,1-14.64,5c-13.16,0-21.43-9-21.58-20"/><path class="cls-2" d="M602.7,211.85V177.41a1.87,1.87,0,0,1,1.77-2.07h2.07a1.86,1.86,0,0,1,2.07,1.77v6.36a13.73,13.73,0,0,1,13.45-9c8.28,0,15.37,4.73,15.37,17.59v19.81a2,2,0,0,1-1.77,2.07h-2.07a1.87,1.87,0,0,1-2.07-1.77V192c0-9.31-4.88-12.27-9.76-12.27-4.29,0-13,3-13.16,15.52V212a1.85,1.85,0,0,1-1.77,2.07h-2.22a2,2,0,0,1-2.07-1.77c0-.3,0-.3.16-.45"/><path class="cls-2" d="M656.36,195c0-11.38,7.69-20.55,21.73-20.55a22.42,22.42,0,0,1,11.83,3.4,1.9,1.9,0,0,1,.89,2.51c-.15.15-.15.3-.3.44l-.59.74a2,2,0,0,1-2.81.59,18.49,18.49,0,0,0-8.87-2.37c-9.61,0-16,6.36-16,14.93s6.51,14.93,16,14.93a18.49,18.49,0,0,0,8.87-2.37,1.9,1.9,0,0,1,2.66.44l.15.15.44.74c.74,1,.44,2.51-1.48,3.55a23.54,23.54,0,0,1-10.79,2.81c-13.75-.13-21.73-9-21.73-19.94"/><path class="cls-2" d="M716.38,228.85l6.06-15.52-15.52-35.48c-.59-1.48,0-2.51,1.63-2.51h2.36a2.4,2.4,0,0,1,2.37,1.63l12.42,29.71,11.68-29.57a2.52,2.52,0,0,1,2.36-1.77h2.51c1.48,0,2.22.89,1.63,2.51l-22,51.74a2.24,2.24,0,0,1-2.37,1.63H718c-1.62,0-2.21-.89-1.62-2.37"/><path class="cls-2" d="M101,41.26A26,26,0,0,1,103,43.18a41.23,41.23,0,0,1,6.8,9,45.7,45.7,0,0,1,4.58,31A43.85,43.85,0,0,1,103,104.08a42.35,42.35,0,0,1-60,.3l-.3-.3a48.49,48.49,0,0,1-5.47-6.8v40.65a67.37,67.37,0,0,0,7.24,3.55,72,72,0,0,0,71-8.13v13.9h30.3V76.88a71.36,71.36,0,0,0-4.58-28.83,73.13,73.13,0,0,0-16.85-26.46c-1.63-1.63-3.4-3.25-5.17-4.73L98,38.89a23.46,23.46,0,0,1,3,2.37"/><path class="cls-1" d="M72.88,0A72,72,0,0,0,44.5,5.78,73.83,73.83,0,0,0,5.77,45,73,73,0,0,0,0,73.48v73.83H33.85V88.85H75.24V58.25H33.11a44.18,44.18,0,0,1,9.76-15.08,42.56,42.56,0,0,1,42-10.94A38.49,38.49,0,0,1,95.49,37l21.14-22.32a75.68,75.68,0,0,0-15.37-8.87A71.53,71.53,0,0,0,78.49.15h-.15L75.09,0H72.88Z"/><polygon class="cls-1" points="742.99 88.56 743.26 88.56 743.12 87.64 742.99 88.56"/><path class="cls-1" d="M743,82.21c-1.63-16.56-8.57-29.27-24.39-35a50.31,50.31,0,0,0-17.36-3.09,49.61,49.61,0,0,0-17.67,3.23A32.82,32.82,0,0,0,662,69.94a70.33,70.33,0,0,0-3.1,19.22c-.31,12.91-.26,25.83-.2,38.74l0-.18v19.51h21.53v-3.82c.15-18.63,0-37.25.15-56,.15-13.31,6.36-21.14,17.59-22.17a35,35,0,0,1,9.61.44,15.39,15.39,0,0,1,12.71,11.09,106.53,106.53,0,0,1,3,11.83H743c.12-.24.22-.16.28,0C743.14,86.43,743.13,84.32,743,82.21Z"/><path class="cls-1" d="M601.4,45A60.27,60.27,0,0,0,591,44.09c-24.69,0-46.59,15.7-51.27,43.49-5.32,31.64,12.86,58.1,43.76,62.53,26.61,4,49.12-10.78,55.33-30.58h0l0-.09a2.09,2.09,0,0,1,.08-.23h0l0-.07H618.86l-4.47,3.4-2,1.4a35.81,35.81,0,0,1-5.18,3.1c-10,4.87-20.55,4.58-30.9-.3-8.43-4-12.71-11.38-14.78-21.14h81.45C646.19,78.11,632.74,50.47,601.4,45ZM562.52,88.31a29,29,0,0,1,29.71-23.65c14.64.59,26.61,11.09,28.24,23.65Z"/><path class="cls-1" d="M400.91,51V47.32H379.63v5.91c0,16.85.29,33.85-.44,50.85-.44,10.79-5.47,19.51-15.82,23.06A36,36,0,0,1,348,128.77c-9.76-1-16.85-6.65-19.81-16.7a49.78,49.78,0,0,1-1.77-11.38c-.29-12.27-.15-24.69-.15-37.1V47.32L305,47.47c0,.44-.15,1-.15,1.62,0,17.89,0,35.63.15,53.52A56.07,56.07,0,0,0,310.59,127c12.81,27.38,55.5,30.79,68.85,7h0l.7-1.09.06,0c-.59,8.43-.59,16.11-1.92,23.5-1.77,9.91-8.13,16.11-17.59,17.59a52.56,52.56,0,0,1-16.7,0,21.27,21.27,0,0,1-16.26-12.12c-.44-.89-.47-2-1.21-2-6.51,0-13.87-.17-20.37-.17a2.09,2.09,0,0,0-.3,1l.44,1.77c3.7,12.42,11.09,21.58,22.62,26.76,13.9,6.21,28.24,6.21,42.43,2.07,12.27-3.55,21.58-11.53,25.72-24.24a79.79,79.79,0,0,0,3.69-22.91C401.21,113.14,400.91,82,400.91,51Z"/><path id="SVGID-2" data-name="SVGID" class="cls-1" d="M252.79,2.38a34.45,34.45,0,0,0-22.47,18.77c-3.7,7.54-4.73,15.82-4.73,24.1V67.57H202.53v21h23.06v58.67H247V88.42h34.3v-21H247c0-7-.3-20.25.15-26.76.74-11.68,6.95-18.48,17.15-20,9.61-1.33,16.85,1.77,21,8.28l19.81-8.87A34.59,34.59,0,0,0,283.25,2.38,54.06,54.06,0,0,0,268,.16a52.92,52.92,0,0,0-15.18,2.22"/><path class="cls-1" d="M527.45,92.41C526.27,72.6,517.4,57.67,500,49.09c-19.07-9.31-42.87-5.62-54.55,12.42l-.89,2V3h-21V4.89c0,31.34-.15,62.53,0,93.72a53.65,53.65,0,0,0,7.69,28.53C441,143,455.45,150.05,473,150.64c15.37.59,29.27-3.7,40.36-15.37C524.64,123.45,528.49,108.67,527.45,92.41Zm-52,38c-18,0-30.75-13.3-30.75-32.52s12.57-32.82,30.6-32.82c18.48,0,31,13,31,32.52S493.75,130.4,475.42,130.4Z"/><polygon class="cls-1" points="742.99 88.56 743.26 88.56 743.12 87.64 742.99 88.56"/></g></g></svg>