<svg id="Layer_1" data-name="Layer 1" xmlns="http://www.w3.org/2000/svg" width="38.421" height="38.811" viewBox="0 0 38.421 38.811">
  <path id="Path_20" data-name="Path 20" d="M71.239,19.129l-.11.118c-.07-.448-.148-.859-.191-1.275-.177-1.634-.386-3.266-.5-4.9A23.406,23.406,0,0,1,70.6,7.419a11.288,11.288,0,0,1,2.581-5.388A5.935,5.935,0,0,1,75.653.2c.228-.089.5-.134.741-.2h.73l.429.129L76.9,2.074,74.974,7.8l-1.811,5.4q-.961,2.863-1.921,5.721A.7.7,0,0,0,71.239,19.129Z" transform="translate(-51.464)" fill="#7e539d"/>
  <path id="Path_21" data-name="Path 21" d="M0,75.7c.094-.36.166-.724.287-1.073A8.645,8.645,0,0,1,2,71.822a12.632,12.632,0,0,1,5.9-3.738A52.322,52.322,0,0,1,14.82,66.4c.733-.129,1.468-.236,2.2-.354a.721.721,0,0,1-.1.1L14.8,67.663q-2.273,1.61-4.562,3.22c-.867.612-1.736,1.221-2.6,1.835L3.7,75.53q-1.073.762-2.147,1.516c-.357.25-.722.483-1.073.722a2.415,2.415,0,0,1-.432-1.022.538.538,0,0,0-.043-.137Z" transform="translate(0 -48.327)" fill="#dd338b"/>
  <path id="Path_22" data-name="Path 22" d="M66.172,92.372l-.354.107h-.8a4.849,4.849,0,0,1-2.165-1.073,9.316,9.316,0,0,1-2.206-2.742,11.039,11.039,0,0,1-1.326-3.671,20.943,20.943,0,0,1-.193-3.55,48.989,48.989,0,0,1,.5-6.04c.1-.684.209-1.368.314-2.053a.786.786,0,0,1,.118.182c.121.357.231.719.349,1.073l1.725,5.316q.555,1.7,1.108,3.4l1.693,5.214Q65.547,90.456,66.172,92.372Z" transform="translate(-43.252 -53.668)" fill="#00a0dd"/>
  <path id="Path_23" data-name="Path 23" d="M68.409,91.976l-1.245-3.821q-.848-2.608-1.693-5.214-.553-1.7-1.108-3.4l-1.725-5.321c-.118-.36-.228-.722-.349-1.073a.786.786,0,0,0-.118-.182l.021-.156c.091.083.158.142.223.207a54.776,54.776,0,0,1,5.613,6.389,15.563,15.563,0,0,1,2.02,3.429,11.7,11.7,0,0,1,.762,3.327,8.855,8.855,0,0,1-.268,3.314,3.78,3.78,0,0,1-1.422,2.147A4.966,4.966,0,0,1,68.409,91.976Z" transform="translate(-45.488 -53.273)" fill="#52b2e5"/>
  <path id="Path_24" data-name="Path 24" d="M88.241,76.177A2.9,2.9,0,0,1,87.3,78.27a7.146,7.146,0,0,1-3.137,1.774,11.857,11.857,0,0,1-6.976,0,47.516,47.516,0,0,1-6.748-2.662c-.781-.37-1.548-.767-2.351-1.165l.126-.067a1.809,1.809,0,0,0,.268.038Z" transform="translate(-49.82 -55.717)" fill="#43ac3a"/>
  <path id="Path_25" data-name="Path 25" d="M23.977,32.726l.089.15c-.357-.056-.671-.1-.982-.153a57.405,57.405,0,0,1-7.261-1.677A17.028,17.028,0,0,1,12.042,29.5a11.01,11.01,0,0,1-4.588-4.991,3.936,3.936,0,0,1-.319-2.632A5.037,5.037,0,0,1,7.548,21a.926.926,0,0,1,.145.075l4.079,2.93c1.191.859,2.385,1.712,3.574,2.571l3.6,2.605L21.721,31.2,23.8,32.7A.5.5,0,0,0,23.977,32.726Z" transform="translate(-5.149 -15.365)" fill="#ee7534"/>
  <path id="Path_26" data-name="Path 26" d="M1.77,77.841c.36-.239.724-.472,1.073-.722Q3.917,76.365,4.99,75.6l3.944-2.785c.867-.614,1.736-1.224,2.6-1.835q2.278-1.61,4.562-3.22l2.128-1.508a.722.722,0,0,0,.1-.1c.161,0,.043.091.03.113-.233.451-.47.9-.714,1.342a52.829,52.829,0,0,1-3.66,5.807,17.009,17.009,0,0,1-2.452,2.809,11.466,11.466,0,0,1-5.874,2.785,4.953,4.953,0,0,1-2.74-.268,2.442,2.442,0,0,1-1.143-.9Z" transform="translate(-1.295 -48.4)" fill="#e964a1"/>
  <path id="Path_27" data-name="Path 27" d="M25.37,29.435a.5.5,0,0,1-.174-.043q-1.041-.746-2.082-1.487L20.341,25.89l-3.6-2.605c-1.189-.859-2.383-1.712-3.574-2.571L9.085,17.779a.926.926,0,0,0-.145-.07,2.683,2.683,0,0,1,1.7-1.073,6.44,6.44,0,0,1,3.346.2,12.1,12.1,0,0,1,6.3,4.341,50.713,50.713,0,0,1,4.35,6.832C24.889,28.477,25.125,28.957,25.37,29.435Z" transform="translate(-6.541 -12.074)" fill="#e95110"/>
  <path id="Path_28" data-name="Path 28" d="M88.578,64.3H68.818a1.809,1.809,0,0,1-.268-.038c.521-.268,1.033-.537,1.559-.8a50.418,50.418,0,0,1,6.41-2.662,16.869,16.869,0,0,1,3.649-.84,11.565,11.565,0,0,1,3.757.314,8.259,8.259,0,0,1,3.145,1.414,3.569,3.569,0,0,1,1.425,1.98A4.561,4.561,0,0,1,88.578,64.3Z" transform="translate(-50.156 -43.843)" fill="#6fb85d"/>
  <path id="Path_29" data-name="Path 29" d="M73.678,19.48a.7.7,0,0,1,0-.212q.958-2.86,1.921-5.721l1.811-5.4L79.34,2.425,79.992.48a2.662,2.662,0,0,1,1.46,1.135,5.286,5.286,0,0,1,.856,2.53,11.415,11.415,0,0,1-1.961,7.65,41.3,41.3,0,0,1-4.363,5.348C75.232,17.94,74.448,18.7,73.678,19.48Z" transform="translate(-53.902 -0.351)" fill="#63338a"/>
</svg>
