<svg xmlns="http://www.w3.org/2000/svg" viewBox="0 0 204.57 34.14">
    <defs>
        <style>
            .direct-1 {
                fill: #fff;
            }

            .direct-2 {
                fill: #d52727;
            }
        </style>
    </defs>
    <g id="Layer_2" data-name="Layer 2">

        <path class="direct-1"
            d="M8.84.39a6.08,6.08,0,0,0-3.95,3.3,9.54,9.54,0,0,0-.83,4.24v3.93H0v3.7H4.06v9.75c0,.21,0,.31,0,.57H7.83V15.53h6V11.84h-6c0-1.23,0-3.57,0-4.71a3.38,3.38,0,0,1,3-3.51,3.5,3.5,0,0,1,3.7,1.45l3.48-1.56A6.08,6.08,0,0,0,14.2.39a9.4,9.4,0,0,0-5.36,0" />
        <path class="direct-1" d="M95.31,24.37a2.13,2.13,0,1,1-2.13-2.13,2.1,2.1,0,0,1,2.13,2.13" />
        <path class="direct-1"
            d="M95.11,14.44c-.29-2.92-1.51-5.15-4.29-6.17a8.89,8.89,0,0,0-3.06-.54,8.78,8.78,0,0,0-3.11.57,5.82,5.82,0,0,0-3.8,4,12.5,12.5,0,0,0-.54,3.38c-.06,2.27,0,4.55,0,6.82v3.4h3.79v-.67c0-3.28,0-6.56,0-9.86,0-2.34,1.12-3.72,3.1-3.9a6,6,0,0,1,1.69.07,2.7,2.7,0,0,1,2.23,2,17.56,17.56,0,0,1,.52,2.08h3.49c0-.05,0,0,0,0,0-.37,0-.74,0-1.11" />
        <path class="direct-1"
            d="M63.35,15.51a5.21,5.21,0,0,1,10.2,0Zm6.84-7.62a10.26,10.26,0,0,0-1.82-.16,8.88,8.88,0,0,0-9,7.65c-.94,5.57,2.26,10.23,7.7,11,4.68.7,8.64-1.9,9.73-5.39h0v0H73.27l-.79.6-.36.24a7.35,7.35,0,0,1-.91.55,6.09,6.09,0,0,1-5.44,0,4.88,4.88,0,0,1-2.6-3.72H77.5c.58-4.84-1.79-9.71-7.31-10.67" />
        <path class="direct-1"
            d="M34.91,8.94V8.3H31.17v1c0,3,0,6-.08,9a4.15,4.15,0,0,1-2.79,4.06,6.31,6.31,0,0,1-2.7.28,3.86,3.86,0,0,1-3.49-2.94,9,9,0,0,1-.31-2c-.05-2.16,0-4.34,0-6.53V8.3L18,8.32c0,.08,0,.19,0,.29,0,3.15,0,6.27,0,9.42a9.88,9.88,0,0,0,1,4.29c2.25,4.82,9.76,5.42,12.11,1.24h0l.13-.19h0a37.28,37.28,0,0,1-.34,4.14,3.56,3.56,0,0,1-3.09,3.09,9.06,9.06,0,0,1-2.94,0A3.75,3.75,0,0,1,22,28.46c-.07-.16-.08-.36-.21-.36l-3.58,0a.32.32,0,0,0-.06.18l.08.31a7.09,7.09,0,0,0,4,4.71,10.64,10.64,0,0,0,7.47.37,6.4,6.4,0,0,0,4.53-4.27,14.39,14.39,0,0,0,.65-4c.07-5.46,0-10.94,0-16.4" />
        <path class="direct-1"
            d="M8.84.39a6.08,6.08,0,0,0-3.95,3.3,9.54,9.54,0,0,0-.83,4.24v3.93H0v3.7H4.06V25.88H7.83V15.53h6V11.84h-6c0-1.23,0-3.57,0-4.71a3.38,3.38,0,0,1,3-3.51,3.5,3.5,0,0,1,3.7,1.45l3.48-1.56A6.08,6.08,0,0,0,14.2.39a9.4,9.4,0,0,0-5.36,0" />
        <path class="direct-1"
            d="M48,22.92c-3.17,0-5.41-2.34-5.41-5.72s2.21-5.78,5.39-5.78,5.46,2.29,5.46,5.72S51.25,22.92,48,22.92m9.16-6.69a8.48,8.48,0,0,0-4.84-7.62C49,7,44.8,7.62,42.74,10.8l-.15.34V.49h-3.7V.83h0c0,5.52,0,11,0,16.5a9.45,9.45,0,0,0,1.36,5,8.43,8.43,0,0,0,7.36,4.13,8.84,8.84,0,0,0,7.1-2.7,9.59,9.59,0,0,0,2.47-7.55" />
        <path class="direct-2"
            d="M118.62,17.7a6.42,6.42,0,1,0-12.83,0,6.42,6.42,0,1,0,12.83,0m-15-.06a8.06,8.06,0,0,1,8.29-8.36,7.18,7.18,0,0,1,6.74,3.85V2.7h2.18V17.6a8.14,8.14,0,0,1-8.56,8.53,8.25,8.25,0,0,1-8.65-8.49" />
        <rect class="direct-2" x="126.21" y="9.7" width="2.17" height="16.01" />
        <path class="direct-2"
            d="M133.76,16.11c0-4.6,2.75-6.84,6.74-6.84s6.71,2.24,6.71,6.88v.19h-2.14v-.23c0-3.33-1.85-4.83-4.57-4.83s-4.57,1.5-4.57,4.83v9.6h-2.17Z" />
        <path class="direct-2"
            d="M165.22,16.47a6.42,6.42,0,0,0-12.6,0Zm-14.9,1.23a8.59,8.59,0,0,1,17.17,0v.71H152.55a6.09,6.09,0,0,0,6.39,5.71,6,6,0,0,0,5.51-2.89h2.36a8.68,8.68,0,0,1-16.49-3.53" />
        <path class="direct-2"
            d="M171,17.7a8.23,8.23,0,0,1,8.62-8.43,8.12,8.12,0,0,1,8.24,6h-2.21A6.47,6.47,0,0,0,173.2,17.7a6.47,6.47,0,0,0,12.44,2.46h2.21a8.12,8.12,0,0,1-8.24,6A8.23,8.23,0,0,1,171,17.7" />
        <path class="direct-2"
            d="M192.06,19.81V4h2.17V9.7h9.43v2h-9.43v8.14c0,2.91,1.62,4.31,4.11,4.31s4.12-1.36,4.12-4.31v-.36h2.11v.36c0,4.21-2.53,6.32-6.23,6.32s-6.28-2.11-6.28-6.32" />
        <path class="direct-2"
            d="M132.44,1.1a.22.22,0,0,0-.23-.08l-7.82,2.12a.23.23,0,0,0-.16.22.23.23,0,0,0,.16.21l3.17.87,3.23-2.14c.1-.07.21.08.12.16l-3,2.44V8.2a.22.22,0,0,0,.16.21h.06a.21.21,0,0,0,.19-.11l4.14-7a.23.23,0,0,0,0-.25" />

    </g>
</svg>