<svg xmlns="http://www.w3.org/2000/svg" viewBox="0 0 162.81 44.88">
    <defs>
        <style>
            .live-1 {
                fill: #cc4dff;
            }

            .live-2 {
                fill: #fff;
            }
        </style>
    </defs>
    <g id="Layer_2" data-name="Layer 2">

        <path class="live-1"
            d="M115.2,2.76a2.41,2.41,0,0,1-.08.65,4.54,4.54,0,0,1-.19.59h-.05s-.06,0-.06.11c-.1.4-.23.8-.37,1.22s-.31.84-.49,1.27a.32.32,0,0,1,0,.16.35.35,0,0,0,0,.16v.17h-.1c-.26.72-.49,1.44-.71,2.16s-.45,1.44-.7,2.16-.5,1.44-.73,2.14S111.2,15,111,15.69L110.33,18a2,2,0,0,0-.1.27c0,.11-.08.2-.11.27a3.75,3.75,0,0,0-.16.68c0,.23-.1.48-.17.73v.21a.32.32,0,0,0-.13.25c0,.12,0,.26-.08.4a.14.14,0,0,0-.11.06q-.1.59-.3,1.32c-.13.49-.24,1-.35,1.43,0,.19-.06.34-.08.46s0,.28-.08.46v.17a.86.86,0,0,0-.17.48c0,.26-.07.47-.1.65-.15.51-.28,1.09-.41,1.76s-.24,1.31-.35,1.92c-.32,1.59-.61,3.21-.87,4.87a27.6,27.6,0,0,0-.27,5.19.34.34,0,0,0,.22-.32,1.4,1.4,0,0,1,.05-.38s0-.05.06,0,.05,0,.05-.08a.83.83,0,0,1,.06-.27c0-.11.07-.22.1-.32s.11,0,.11-.06a.29.29,0,0,1,.08-.19.55.55,0,0,0,.14-.19c0-.07,0-.1,0-.1s0,0,0-.11a.41.41,0,0,0,.06-.19.36.36,0,0,1,0-.19h.06s0,0,0-.06a.19.19,0,0,1,0-.1.43.43,0,0,0,0-.11,7.67,7.67,0,0,0,.38-.89,9,9,0,0,1,.38-.9.1.1,0,0,0,0-.08s0,0,.06-.08a.6.6,0,0,0,.14-.35,1.74,1.74,0,0,1,.13-.51c.07,0,.11,0,.11-.06a.25.25,0,0,1,.08-.19.27.27,0,0,0,.08-.19l.16-.32c.07-.15.13-.25.16-.33a.19.19,0,0,1,0-.1.26.26,0,0,0,0-.11,1.58,1.58,0,0,0,.16-.35,2.66,2.66,0,0,1,.16-.41s0,0,0,0,0,0,0,0a.59.59,0,0,1,.21-.38,1.75,1.75,0,0,0,.22-.49,2.86,2.86,0,0,1,.22-.54,1.86,1.86,0,0,0,.16-.27c.07-.14.13-.25.16-.33a.52.52,0,0,1,.16-.37c.08,0,.12-.13.14-.28a.86.86,0,0,1,.13-.37.81.81,0,0,0,.19-.36,4.68,4.68,0,0,1,.19-.45s0,0,.06,0,0,0,0-.08a.75.75,0,0,1,.14-.33.68.68,0,0,0,.13-.32.27.27,0,0,1,.08-.19.85.85,0,0,0,.14-.19.51.51,0,0,1,.16-.38,1.58,1.58,0,0,0,.16-.49.63.63,0,0,0,.16-.24,1.58,1.58,0,0,1,.17-.3,1.9,1.9,0,0,0,.1-.29,1.19,1.19,0,0,1,.17-.36.69.69,0,0,1,0-.16c0-.07,0-.11.08-.11h0V24.4l.16-.19a.48.48,0,0,0,.11-.3.32.32,0,0,0,.08-.14.59.59,0,0,1,.14-.19s0,0,0,0l.05-.05a.83.83,0,0,0,.14-.38.79.79,0,0,1,.14-.38s0,0,0,0,0,0,.08-.08a.4.4,0,0,1,.06-.16,2.26,2.26,0,0,1,.11-.22.16.16,0,0,0,0-.11.25.25,0,0,1,0-.16h.06V21.8h.11v-.22a.27.27,0,0,0,.21-.11c0-.07,0-.12,0-.16s0-.09,0-.16a.16.16,0,0,1,.11,0,.14.14,0,0,0,.1-.06v-.21c0-.18.25-.41.62-.68a4,4,0,0,1,1.09-.57.66.66,0,0,1,.75.11c.17.18.07.63-.29,1.35,0,0-.07.05-.08,0s0,0,0,.08a.18.18,0,0,1-.08.16.44.44,0,0,0-.14.16.58.58,0,0,0-.05.17v.16a.23.23,0,0,0-.11,0l-.11,0a.52.52,0,0,0,0,.25.38.38,0,0,1,0,.24s-.07.05-.08,0,0,0,0,.08a.29.29,0,0,1-.08.19.67.67,0,0,0-.14.19.17.17,0,0,1-.08.16.27.27,0,0,0-.08.22.19.19,0,0,1-.08.16.45.45,0,0,0-.14.21.67.67,0,0,1-.08.3,1.31,1.31,0,0,1-.19.35,2,2,0,0,0-.18.36c-.06.12-.12.26-.2.4v.16h0v.17h-.11a.55.55,0,0,0-.1.32.37.37,0,0,1-.11.27l-.06.27a1.16,1.16,0,0,0-.21.41c-.08.2-.13.35-.17.46-.25.5-.5,1.06-.75,1.67L113,30.56c-.07.22-.16.43-.24.63a5,5,0,0,0-.25.62.31.31,0,0,0,0,.21.41.41,0,0,1,0,.22l-.14.11a.14.14,0,0,0-.08.11.39.39,0,0,0,0,.13.12.12,0,0,1,0,.14s0,0,0,0,0,0,0,.09-.07.15-.11.24-.07.17-.11.24v.16h-.11a.42.42,0,0,0,0,.25.47.47,0,0,1,0,.24c-.07,0-.11,0-.11.06a.55.55,0,0,1-.11.29,3.32,3.32,0,0,0-.16.35,7.25,7.25,0,0,0-.27.87,4.37,4.37,0,0,1-.32.87s-.06,0-.06.05l-.11.24c0,.09-.07.18-.1.25v.16a1.22,1.22,0,0,0-.25.46q-.14.34-.24.57v.21h-.06a.7.7,0,0,0,0,.25.6.6,0,0,1-.05.24.16.16,0,0,0-.11,0l-.06.11c0,.07,0,.13,0,.16a.52.52,0,0,1,0,.11s-.06,0-.08,0,0,0,0,.08a1.84,1.84,0,0,1,0,.24.59.59,0,0,1-.08.25h-.11V40h-.06a2.5,2.5,0,0,0-.16.43,2,2,0,0,1-.16.44v.16h0v.21a.17.17,0,0,0-.11.17.56.56,0,0,1-.11.27c0,.1-.09.23-.16.37a1.25,1.25,0,0,0-.14.41,2.19,2.19,0,0,1-.13.46c-.08,0-.11,0-.11,0a2.14,2.14,0,0,1,0,.25c0,.12,0,.21-.08.24h-.11v.22a2.42,2.42,0,0,0-.27.32.41.41,0,0,1-.11.16.26.26,0,0,0-.05.17c0,.07-.06.15-.19.24l-.3.19H107a.46.46,0,0,1-.38.08,2.87,2.87,0,0,1-.59-.13l-.65-.25-.54-.24s0-.06,0-.08,0,0-.08,0a1,1,0,0,1-.6-.27,1.65,1.65,0,0,1-.43-.49.16.16,0,0,0-.11-.05c0-.07,0-.13,0-.16a.3.3,0,0,0,0-.17.3.3,0,0,0-.11-.13.28.28,0,0,1-.11-.14v-.16a.87.87,0,0,0-.11-.35c-.07-.16-.12-.3-.16-.41s0,0,.08,0,.07-.07,0-.1-.14-.18-.22-.44c-.07-.47-.12-.94-.16-1.43s-.07-1-.11-1.38c0-.11,0-.18-.08-.22s-.06-.12,0-.27,0,0,.06,0l.05-.05a.13.13,0,0,0-.05-.11.21.21,0,0,1-.06-.16V35.38a.24.24,0,0,1,.09-.22c.05,0,.06-.12,0-.27s-.05-.15-.05-.13a1.88,1.88,0,0,0,.05-.25,4.34,4.34,0,0,0,.06-.78,8.37,8.37,0,0,1,.05-.89q.1-1.25.3-2.55c.13-.86.28-1.71.46-2.54.11-.61.22-1.22.35-1.81s.24-1.2.35-1.81c.07-.26.15-.56.22-.92V23h.11c0-.11,0-.22,0-.32a1.84,1.84,0,0,0,0-.33c0-.14.07-.3.11-.49a1.88,1.88,0,0,0,.13-.43c.06-.21.1-.41.14-.59v-.17h.11a1.23,1.23,0,0,0,0-.35.67.67,0,0,1,.06-.3c0-.1.06-.2.08-.29a2.26,2.26,0,0,1,.08-.3,2.12,2.12,0,0,0,.13-.54,2.15,2.15,0,0,1,.14-.54c.47-1.63.94-3.1,1.4-4.44l1.52-4.27a2.93,2.93,0,0,0,.14-.43,1.83,1.83,0,0,1,.13-.44h.05a.14.14,0,0,0,.06-.11.24.24,0,0,0,0-.18.34.34,0,0,1,.09-.25s0-.07.08-.11a.14.14,0,0,0,.08-.1V7.84l.11-.27.1-.21a.2.2,0,0,1,0-.11.35.35,0,0,0,0-.16,2.74,2.74,0,0,1,.19-.33,1.62,1.62,0,0,0,.19-.43,1.25,1.25,0,0,0,.08-.27.49.49,0,0,1,.13-.27V5.62a.14.14,0,0,1,.06-.1,1.78,1.78,0,0,0,.32-.6.54.54,0,0,1,.06-.27c.11-.11.18-.16.21-.16.08-.29.13-.49.17-.6l.1-.08a.21.21,0,0,0,.11-.08V3.52s.06,0,.06,0a.4.4,0,0,0,.1-.28.36.36,0,0,1,.11-.26c.11-.11.16-.19.16-.22a4.71,4.71,0,0,0,.33-.52.87.87,0,0,1,.54-.4c.11,0,.18-.05.22,0a.32.32,0,0,0,.16,0s0,0,0-.08.07-.07.11,0,.07.11.1.11.06,0,.06.11.28.19.41,0,.24-.17.35,0a2.08,2.08,0,0,1,.81.27.78.78,0,0,1,.32.27,1,1,0,0,0,.27.27m-2.43-.27a.56.56,0,0,0-.35.32c-.06.15-.12.29-.19.43s-.16.3-.25.46l-.24.46a7.64,7.64,0,0,0-.46,1c-.13.34-.26.67-.4,1a4.67,4.67,0,0,0-.19.51l-.19.51c-.08.15-.15.3-.22.46s-.13.28-.16.36a.28.28,0,0,1-.06.21l-.1.27a.4.4,0,0,0-.06.16.16.16,0,0,1-.05.11.37.37,0,0,1,0,.17.19.19,0,0,0,0,.1.65.65,0,0,1-.1.22l-.11.27a.37.37,0,0,1-.11.27q0,.23-.06.27a1.45,1.45,0,0,0-.16.38.64.64,0,0,1-.16.32v.17a2.27,2.27,0,0,1-.27.75c-.11.33-.23.66-.35,1a8.43,8.43,0,0,0-.3,1,2.26,2.26,0,0,0-.08.3c0,.09,0,.19-.08.3l-.11,0a.62.62,0,0,0-.05.3.64.64,0,0,1-.06.3.15.15,0,0,0-.11,0,.57.57,0,0,1,0,.16.35.35,0,0,0,0,.16.62.62,0,0,1-.11.17v.16c-.07.22-.13.43-.19.65a4.54,4.54,0,0,1-.19.59s0,.06,0,.06-.06,0-.06.05a2,2,0,0,0,0,.38.37.37,0,0,1-.11.27v.16l-.19.73a4.85,4.85,0,0,1-.19.68L106,20.77c0,.18-.08.36-.11.54a3.68,3.68,0,0,1-.16.54,1.37,1.37,0,0,0-.11.54,1.77,1.77,0,0,1-.06.49l-.1.11a2.11,2.11,0,0,0-.14.7,1,1,0,0,1-.13.54v.17a1.13,1.13,0,0,0-.11.46,1.37,1.37,0,0,1-.11.46c-.25,1.19-.48,2.37-.68,3.54s-.37,2.41-.51,3.71a9.67,9.67,0,0,0-.14,1.27c0,.45,0,.89-.08,1.32s-.07,1-.11,1.43a5.34,5.34,0,0,0,.06,1.28.19.19,0,0,0,0,.13.33.33,0,0,1,0,.14,7.47,7.47,0,0,1,.06.92,4.3,4.3,0,0,0,.05.7,1.57,1.57,0,0,1,0,.27.27.27,0,0,0,.14.27,31.91,31.91,0,0,1,0-5.54c.18-1.79.42-3.53.71-5.22.18-1.05.37-2.09.56-3.12s.41-2,.63-2.94c.18-.72.35-1.44.51-2.14s.33-1.36.51-2l.11-.3c0-.09.07-.19.11-.3a2.21,2.21,0,0,0,.14-.59,1.88,1.88,0,0,1,.13-.6s0,0,0,0,0,0,.08-.08a6.46,6.46,0,0,1,.3-1.11c.12-.34.24-.69.35-1a.56.56,0,0,0,0-.27.47.47,0,0,1,0-.27s.06,0,.08,0,0,0,0-.08a.42.42,0,0,0,.06-.14.35.35,0,0,1,0-.13.33.33,0,0,1,.11-.27.57.57,0,0,1,0-.16.26.26,0,0,0,0-.11c0-.07.06-.13.08-.16a.37.37,0,0,0,0-.17.58.58,0,0,0,0-.13.52.52,0,0,1,.06-.14.19.19,0,0,1,0-.13.37.37,0,0,0,0-.14,1,1,0,0,0,.11-.27,1,1,0,0,0,.11-.27.47.47,0,0,0,0-.16.35.35,0,0,1,.06-.16V12a.12.12,0,0,1,0-.1.15.15,0,0,1,.11-.06v-.21a2.09,2.09,0,0,1,.11-.3c0-.09.07-.17.1-.25v-.1h.06a.72.72,0,0,0,0-.27.54.54,0,0,1,.06-.27l.11-.11c0-.15,0-.24.1-.27a.58.58,0,0,0,.11-.3.89.89,0,0,1,.06-.3c0-.11.07-.2.1-.3a.6.6,0,0,0,.06-.24l.11-.11c.07-.18.13-.36.19-.54s.11-.38.19-.59a1.09,1.09,0,0,1,.1-.19,1.18,1.18,0,0,0,.11-.19.22.22,0,0,1,0-.14.19.19,0,0,0,0-.13V6.82l.21-.22a.43.43,0,0,0,0-.11s0-.09,0-.16l.06-.06.1-.1a.51.51,0,0,0,.11-.3.58.58,0,0,1,.11-.3c.07-.18.14-.35.22-.51s.14-.34.21-.52a.37.37,0,0,0,.11-.27.37.37,0,0,1,.11-.27s0-.06.08-.08a.13.13,0,0,0,.08-.13.58.58,0,0,0,.11-.3.38.38,0,0,1,.11-.25s0-.06.08-.08.08,0,.08-.08a.32.32,0,0,0,0-.16.4.4,0,0,1,.06-.16s0-.07.08-.11a.12.12,0,0,0,0-.16s0-.06-.06-.08,0,0,0,.08m-9,38v.16c0,.14,0,.21,0,.19l.05-.11a.45.45,0,0,0,0-.16c0-.06,0-.08-.11-.08m3.08.54V41s0-.05.11-.05.07-.22.11-.33a1.12,1.12,0,0,0,0-.27s0,0,.11,0a.45.45,0,0,0,.06-.19.36.36,0,0,1,0-.19,3.35,3.35,0,0,1,.16-.41,1.08,1.08,0,0,0,.11-.35c0-.07,0-.1,0-.08s0,0,0,0a2.86,2.86,0,0,0,.22-.54c0-.11.08-.22.14-.35s.09-.22.13-.3a1.18,1.18,0,0,1,.22-.49,1.25,1.25,0,0,0,.16-.35,1.18,1.18,0,0,1,.11-.29c0-.08.07-.16.11-.25a.79.79,0,0,0,0-.24c0-.07,0-.1.05-.08s.06,0,.06,0l.19-.51a4.13,4.13,0,0,1,.19-.52l.13-.29c.06-.13.1-.25.14-.36a1.21,1.21,0,0,1,.21-.43c0-.07,0-.12,0-.13a.12.12,0,0,0,0-.09c.07-.14.14-.29.21-.46l.17-.35a1.25,1.25,0,0,0,.16-.37,1.14,1.14,0,0,1,.11-.33v-.05c0-.08,0-.1,0-.08s.06,0,.06,0c.1-.22.2-.44.29-.68s.17-.48.25-.73a.16.16,0,0,0,0-.11,0,0,0,0,1,0,0,.8.8,0,0,1,.14-.33.72.72,0,0,0,.13-.27.58.58,0,0,0,.22-.43c0-.07,0-.1,0-.08s0,0,.08,0c.07-.25.15-.49.24-.73a6.8,6.8,0,0,1,.3-.67.16.16,0,0,1,0-.11.15.15,0,0,0,.06-.11s0,0,0,0,0,0,0,0,.1-.14.08-.19a.22.22,0,0,1,0-.19c0-.07.06-.11.08-.11s0,0,0-.11a.29.29,0,0,1,.08-.19.27.27,0,0,0,.08-.19,0,0,0,0,1,0,0H113a5.76,5.76,0,0,0,.27-.76,1.47,1.47,0,0,1,.38-.65c0-.18,0-.2-.11-.05l-.16.32a2.71,2.71,0,0,0-.22.38.49.49,0,0,0,0,.38.39.39,0,0,0-.19.27.39.39,0,0,1-.19.27,2.17,2.17,0,0,0-.14.49,1,1,0,0,1-.13.38l-.11.08a.38.38,0,0,0-.11.08,3.68,3.68,0,0,0-.16.54,1,1,0,0,1-.27.49l-.3.78a1.7,1.7,0,0,1-.4.62.43.43,0,0,1-.06.38.33.33,0,0,0-.11.22s0,0-.1.05a.83.83,0,0,0-.14.38.9.9,0,0,1-.13.38.17.17,0,0,1-.06.11.13.13,0,0,0,0,.11s0,0,0,0,0,0,0,0a1.73,1.73,0,0,0-.19.6A.53.53,0,0,1,110,33a1,1,0,0,1-.17.54,2.33,2.33,0,0,0-.21.43v.16a.14.14,0,0,1-.08.11c-.06,0-.09.07-.09.11a.36.36,0,0,0-.1.27.33.33,0,0,0-.11.27.37.37,0,0,1-.11.27c-.07.18-.14.35-.22.51l-.21.52a.51.51,0,0,0-.11.3.53.53,0,0,1-.11.29s0,0,0,.06v.21l-.11.09a.26.26,0,0,0-.11.08,5.67,5.67,0,0,0-.16.59l-.22.33v.21s0,.07-.08.08-.08,0-.08.09a.32.32,0,0,0,0,.16.4.4,0,0,1-.06.16.86.86,0,0,0-.08.27,1.25,1.25,0,0,1-.08.27,4.27,4.27,0,0,0-.22.38v.16s0,.07-.08.11-.08.07-.08.11v.16a3.05,3.05,0,0,1-.13.32c-.06.11-.12.22-.19.33s-.08.21-.11.32a.21.21,0,0,0,.11.27,1,1,0,0,1,.1-.29,1.18,1.18,0,0,0,.11-.19m7.41-17.15,0-.06s0,0,0,.06-.17.32-.28.54-.18.36-.21.43a.08.08,0,0,0,0,.08s.06,0,.06-.08a1.62,1.62,0,0,1,.24-.51,1.85,1.85,0,0,0,.24-.46" />
        <path class="live-1"
            d="M126.4,20.23a.76.76,0,0,0,.41.16.52.52,0,0,1,.4.33s0,.05.06.05,0,0,0,.11a.9.9,0,0,1-.14.35l-.24.41a.16.16,0,0,0,0,.11.4.4,0,0,1-.06.16s0,.05-.08.05-.08,0-.08.06a1,1,0,0,0-.08.19.56.56,0,0,1-.13.18s0,0,0,0,0,0,0,.06a.18.18,0,0,1-.05.11.14.14,0,0,0-.06.11l-.16.16L126,23l-.11.11a.18.18,0,0,0,0,.11.47.47,0,0,1,0,.16l-.17.06a3.54,3.54,0,0,1-.21.38l-.17.32a.35.35,0,0,1-.1.08l-.11.08a.5.5,0,0,0-.14.27.49.49,0,0,1-.13.27s0,.05,0,0,0,0,0,.08a.26.26,0,0,1-.13.14c-.06,0-.08.06-.08.13a.56.56,0,0,1-.08.25,1.55,1.55,0,0,1-.19.24c-.11.11-.18.16-.22.16a.23.23,0,0,0,0,.19.26.26,0,0,1,0,.19c0,.07-.08.11-.11.11s-.08,0-.11.11a.79.79,0,0,1-.08.13.39.39,0,0,0-.08.14.16.16,0,0,0-.06.13.17.17,0,0,1,0,.14s0,.05-.08.05-.08,0-.08.06-.15.27-.22.37a.64.64,0,0,1-.08.14.42.42,0,0,0-.08.13.2.2,0,0,0-.06.14.19.19,0,0,1,0,.14s0,.05-.08.05a.22.22,0,0,0-.14.05v.17c0,.07,0,.1,0,.1s-.07,0-.11.11,0,.06,0,.08,0,.05-.06.08a.16.16,0,0,1,0,.11.55.55,0,0,1-.14.19.29.29,0,0,0-.08.19c0,.07,0,.12-.08.14s-.08.06-.08.13a.42.42,0,0,1-.11.24,2.76,2.76,0,0,1-.21.25.54.54,0,0,1-.06.27.13.13,0,0,1-.11.05.14.14,0,0,0-.1.06v.16s0,.07-.09.11a.14.14,0,0,0-.08.1A.56.56,0,0,0,121,31a.59.59,0,0,1-.14.27s-.06,0-.08,0,0,0,0,.08a.21.21,0,0,0,0,.11s0,.06,0,.06a.38.38,0,0,1-.11.13.09.09,0,0,0-.06.08v.17a2.08,2.08,0,0,0-.27.37s-.06.05-.08,0,0,0,0,.08l-.11.16a.35.35,0,0,1-.11.14.09.09,0,0,0-.06.08v.16l-.16.17a1.31,1.31,0,0,0-.16.21s0,0,0,0,0,0,0,.08a.24.24,0,0,1-.11.19,1.86,1.86,0,0,0-.22.19.32.32,0,0,1-.08.13,1.09,1.09,0,0,0-.08.14l-.16.16v.22c-.15,0-.22,0-.22.11a.1.1,0,0,0,0,.1s0,.09-.08.17a.16.16,0,0,1-.11,0s0,0,0,.06-.06.12-.08.16a.76.76,0,0,1-.14.16.16.16,0,0,1-.13.11c-.06,0-.1,0-.14.11a.12.12,0,0,0,0,.13.17.17,0,0,1,0,.14,3.6,3.6,0,0,1-.49.37s0,0,0,.09a.16.16,0,0,1-.06.13.38.38,0,0,1-.18.06.27.27,0,0,0-.19.1s0,.07,0,.08,0,0-.08,0a.18.18,0,0,0-.16.08c0,.06-.13.08-.28.08a1.4,1.4,0,0,1-1-.16,8.51,8.51,0,0,1-.92-.59,2.8,2.8,0,0,1-.41-.25l-.35-.29a.4.4,0,0,0-.16-.06.47.47,0,0,1-.16,0,.2.2,0,0,0-.06-.16c-.25-.15-.38-.24-.38-.27v-.22h-.11v-.16a1.34,1.34,0,0,1-.16-.22v-.16h-.11a.64.64,0,0,1-.1-.35.41.41,0,0,0-.11-.3,1.34,1.34,0,0,1-.08-.43c0-.22-.05-.42-.08-.6a3.83,3.83,0,0,1-.11-.76v-.38c.07-.07.09-.11.05-.13s-.05-.06-.05-.14a3,3,0,0,0,.05-.48,3,3,0,0,1,.06-.54v-.22c0-.14.08-.36.13-.65s.1-.5.14-.65v-.21a.21.21,0,0,0,0-.11.47.47,0,0,1,0-.16,1,1,0,0,1,.06-.3c0-.13.07-.28.11-.46s.07-.16.1-.25a2.49,2.49,0,0,0,.11-.29l.33-1.17a8.7,8.7,0,0,1,.43-1.16,1.32,1.32,0,0,0,.08-.19l.08-.19a.26.26,0,0,0,0-.21.34.34,0,0,1,.08-.27s0-.07.08-.09.08,0,.08-.08a.36.36,0,0,0,.11-.29.41.41,0,0,1,.11-.3,1,1,0,0,1,.11-.27s0-.06.08-.08.08-.05.08-.09a.35.35,0,0,0,0-.18.38.38,0,0,1,.06-.19.37.37,0,0,1,0-.17.36.36,0,0,0,0-.1.28.28,0,0,1,.11-.14.38.38,0,0,0,.11-.08,1,1,0,0,0,.13-.38,1.44,1.44,0,0,1,.14-.43c0-.07.07-.11.11-.11s.07,0,.1-.11a.54.54,0,0,1,.06-.27c0-.07.07-.12.11-.13a.45.45,0,0,0,.11-.14c0-.07,0-.13,0-.16s0-.07,0-.11a.34.34,0,0,1,.11-.14.33.33,0,0,0,.11-.08.58.58,0,0,0,0-.13.81.81,0,0,1,.05-.14s0,0,0,0,0,0,0-.08a1.44,1.44,0,0,1,.08-.17s.06-.11.13-.21a.17.17,0,0,0,.06-.11.47.47,0,0,1,0-.16l.17-.17.1-.21s0-.06,0-.06,0,0,0-.05a.18.18,0,0,0,0-.11.4.4,0,0,1,.06-.16c0-.07.07-.11.1-.11a.16.16,0,0,0,.11,0c0-.08,0-.13,0-.17a.07.07,0,0,1,0-.1.28.28,0,0,1,.1-.14.28.28,0,0,0,.11-.08l.11-.22.16-.27a.43.43,0,0,0,.14-.21.46.46,0,0,1,.13-.22.4.4,0,0,0,.06-.16.18.18,0,0,1,0-.11.58.58,0,0,1,.16-.19,1.3,1.3,0,0,0,.22-.19.34.34,0,0,0,0-.16.35.35,0,0,1,.06-.16l.16-.17c.07-.07.14-.13.19-.19a.43.43,0,0,1,.3-.08h.57a2.38,2.38,0,0,1,.73.11.53.53,0,0,0,.24.11.86.86,0,0,1,.3.16,1.08,1.08,0,0,1,.32.25,4.41,4.41,0,0,1,.27.4.93.93,0,0,1,.06.57,3.73,3.73,0,0,1-.17.73l-.1.11v.16s0,.07-.09.11a.14.14,0,0,0-.08.11v.16l-.1.27-.11.22a.28.28,0,0,1-.06.18l-.11.19a1.28,1.28,0,0,1-.21.44s0,.05,0,.05,0,0,0,.06a.49.49,0,0,0,0,.18.49.49,0,0,1,0,.19c-.11.11-.17.18-.17.22v.16h-.1a4.13,4.13,0,0,0-.19.52l-.19.51c-.11.11-.18.16-.22.16a.74.74,0,0,0,0,.33.27.27,0,0,0-.11.21.31.31,0,0,1-.11.22,1,1,0,0,1-.11.33s0,.06-.08.08-.08,0-.08.08v.16l-.11.32a.55.55,0,0,0-.19.27,2.78,2.78,0,0,1-.19.44v.21h0c-.22.51-.42,1-.6,1.52s-.36,1-.54,1.57a.82.82,0,0,0-.13.35,1.48,1.48,0,0,1-.14.4v.17a.21.21,0,0,0-.11.21.82.82,0,0,1-.1.27l-.11.11a.39.39,0,0,0,0,.27.39.39,0,0,1,0,.27,3.41,3.41,0,0,0-.16.57c0,.2-.07.39-.11.57-.14.54-.26,1-.35,1.49a8.23,8.23,0,0,0-.13,1.59s0,.06-.06.08a.1.1,0,0,0,0,.08.35.35,0,0,0,.21-.13.93.93,0,0,1,.17-.19l.19-.19.19-.19a.54.54,0,0,0,0-.16.47.47,0,0,1,0-.16l.08-.06s.05,0,.09-.11a.19.19,0,0,0,0-.13.22.22,0,0,1,.05-.14c.11-.11.17-.14.17-.11l.32-.48.16-.16.11-.22.16-.16a.74.74,0,0,0,.19-.3,2.89,2.89,0,0,1,.19-.35c0-.07.07-.11.11-.11s.07,0,.11-.11a.68.68,0,0,1,0-.27l.22-.19a.58.58,0,0,0,.16-.19.14.14,0,0,0,.06-.11.38.38,0,0,1,0-.16l.16-.16c0-.07.07-.12.11-.13a.44.44,0,0,0,.11-.09v-.16l.19-.21.19-.28.16-.16a1,1,0,0,0,.19-.32,1.68,1.68,0,0,1,.19-.38.14.14,0,0,1,.11-.06s.07,0,.1-.1a.12.12,0,0,1,0-.09s0,0,0-.08l.19-.19.19-.18c.07-.08.1-.13.08-.17s0-.09,0-.16a.59.59,0,0,0,.18-.13l.19-.19a.45.45,0,0,0,.14-.25.47.47,0,0,1,.13-.24s.07,0,.09,0,0,0,0-.08a.33.33,0,0,1,.14-.22l.24-.21a4.4,4.4,0,0,1,.27-.38c0-.07.07-.12.11-.13a.09.09,0,0,0,0-.09.78.78,0,0,0,.17-.21,2.3,2.3,0,0,1,.16-.27l0-.06a2,2,0,0,1,.16-.24l.22-.24a.44.44,0,0,1,.11-.09.26.26,0,0,0,.11-.08.19.19,0,0,0,0-.16s0-.09.09-.16l.32-.32a2.05,2.05,0,0,1,.33-.38.54.54,0,0,1,.16-.22.46.46,0,0,0,.13-.22.87.87,0,0,1,.14-.27c.07,0,.11,0,.11-.05s0-.1,0-.08.07,0,.11,0a.18.18,0,0,0,.11-.16.32.32,0,0,1,.1-.22.53.53,0,0,1,.19-.13.54.54,0,0,0,.19-.14.53.53,0,0,1,.46,0q.2.11.3,0m-12.06,6v-.11l.62-1.71a12.67,12.67,0,0,1,.68-1.59,5.58,5.58,0,0,0,.21-.52,1.18,1.18,0,0,1,.22-.4v-.16l.21-.22a.33.33,0,0,0,.11-.27.54.54,0,0,1,.06-.27h.11v-.22l.16-.16a.37.37,0,0,0,.11-.27.6.6,0,0,1,.1-.33H117v-.16s0-.06.08-.08.08,0,.08-.08a.54.54,0,0,0,.11-.33.36.36,0,0,1,.11-.26s0-.06,0-.06.11,0,.11-.05a.18.18,0,0,0,.06-.14.19.19,0,0,1,0-.13c0-.08,0-.12,0-.14s0-.06.08-.13l.16-.17a.34.34,0,0,0,.11-.24.6.6,0,0,1,.05-.24.33.33,0,0,1,.11-.08.34.34,0,0,0,.11-.14c0-.07.06-.12.08-.13a.51.51,0,0,0,.08-.14v-.16l.22-.22,0-.13a.42.42,0,0,1,.06-.14s0-.07.08-.11a.18.18,0,0,0,.08-.16.29.29,0,0,1,.08-.19.24.24,0,0,0,.08-.19c0-.07.08-.15.14-.24a.2.2,0,0,0,0-.25s-.09,0-.16.11l-.22.22a.86.86,0,0,0-.08.27,1.25,1.25,0,0,1-.08.27.14.14,0,0,1-.11.05.17.17,0,0,0-.11.06.48.48,0,0,0,0,.27,5.39,5.39,0,0,0-.65,1.13.15.15,0,0,0,0,.11.43.43,0,0,1-.06.17.16.16,0,0,1-.11.05.21.21,0,0,0-.11.05.5.5,0,0,0,0,.27.37.37,0,0,0,0,.14.4.4,0,0,1-.06.13.31.31,0,0,1-.11.09.24.24,0,0,0-.1.08v.11c0,.07,0,.09,0,.08s0,0,0,0a.81.81,0,0,0-.05.14.4.4,0,0,1-.06.13.24.24,0,0,1-.1.08.27.27,0,0,0-.11.14.23.23,0,0,1,0,.11.32.32,0,0,0,0,.16,3.62,3.62,0,0,1-.24.43,3.19,3.19,0,0,0-.24.49l-.17.49-.1.08a.28.28,0,0,0-.11.08v.22s0,.05-.11.05l-.22.59a1.19,1.19,0,0,1-.21.44l-.11.32v.16s0,.07-.08.09-.08,0-.08.08a.7.7,0,0,0-.11.32c-.33.8-.61,1.61-.87,2.44,0,0,0,.05-.05.05a.93.93,0,0,0-.11.4.26.26,0,0,1-.11.25v.22a2.61,2.61,0,0,0-.08.37,1.8,1.8,0,0,1-.08.38l-.11.11a1.56,1.56,0,0,0-.11.57,2,2,0,0,1-.1.62,1.18,1.18,0,0,1-.08.38,1,1,0,0,0-.09.27v.22a4,4,0,0,0,0,.54,2.24,2.24,0,0,1-.06.48v.3a.63.63,0,0,0,.11.35,7.93,7.93,0,0,1,.17-1.57,12.42,12.42,0,0,1,.32-1.35.91.91,0,0,0,.08-.46.93.93,0,0,1,.08-.46c0-.07.07-.15.11-.24s.07-.17.11-.24a2.69,2.69,0,0,0,.16-.65.7.7,0,0,1,.22-.49Zm10.44-4.11c0-.08,0-.12,0-.14s0,0,0-.08q-1.08,1.52-2.19,3c-.74,1-1.47,2-2.19,3.08,0,0-.06.06-.06.08a.15.15,0,0,1,0,.08l-.16.17-.11.21c-.11.11-.17.2-.17.27s-.06.1-.08.08,0,0,0,0a.15.15,0,0,0-.06.11.54.54,0,0,1,0,.16s0,.05-.08.05-.08,0-.08.06a.18.18,0,0,0-.06.13.22.22,0,0,1,0,.14h-.11v.16c0,.07-.06.11-.08.11s-.05,0-.08.11-.06.06-.06.08,0,0-.05.08-.16.18-.16.22-.06.06-.06.08,0,0,0,.08a.37.37,0,0,1-.14.16s-.08.07-.08.11,0,.1,0,.08,0,0,0,0a.35.35,0,0,0-.06.16.14.14,0,0,1,0,.11.18.18,0,0,1-.11.05.17.17,0,0,0-.11.06.12.12,0,0,0,0,.13.14.14,0,0,1,0,.14.18.18,0,0,1-.11.05.21.21,0,0,0-.11.05.52.52,0,0,0,0,.28h-.11v.21a.29.29,0,0,1-.13.08.47.47,0,0,0-.14.08v.22a.35.35,0,0,1-.13.08l-.19.08v.22l-.17.16a5.92,5.92,0,0,1-.75.92,2.21,2.21,0,0,1-.17.22c0,.07,0,.11-.05.11s0,0,.05.05a28,28,0,0,0,2.28-3c.68-1,1.38-2.06,2.11-3.11l2.16-3.14c.72-1,1.46-2,2.22-3M120.94,7.79a.76.76,0,0,0-.25-.16.35.35,0,0,1-.19-.22,1,1,0,0,1-.1-1.11,9.91,9.91,0,0,1,.54-1.16.28.28,0,0,1,.11-.08l.1-.08c0-.08,0-.13,0-.17s0-.07.08-.1,0-.06.08-.06.08,0,.08-.05a2.84,2.84,0,0,0,.17-.38l.32-.49c.07-.07.14-.13.19-.19l.19-.19a.4.4,0,0,0,.13-.21.48.48,0,0,1,.14-.22,2.89,2.89,0,0,1,.38-.49l.16-.16a.32.32,0,0,0,.05-.16.15.15,0,0,1,.06-.11l.19-.19.19-.19.19-.19.19-.19V1a.55.55,0,0,1,.16-.11,1.34,1.34,0,0,0,.22-.16.55.55,0,0,0,.13-.25.43.43,0,0,1,.14-.24.08.08,0,0,1,.1,0s.09,0,.17,0l.1-.11a.15.15,0,0,0,.06-.11h.35a.49.49,0,0,1,.35.11q.27-.06.33,0a1.31,1.31,0,0,0,.21.16c0-.11,0-.12.11,0a.18.18,0,0,0,.27,0,.36.36,0,0,0,.27.22,1.09,1.09,0,0,1,.38.16,2.84,2.84,0,0,1,.3.43,1.25,1.25,0,0,1,.19.54.92.92,0,0,1-.19.49l-.41.59a3.49,3.49,0,0,1-.27.55q-.16.27-.27.48s-.06,0-.08,0,0,0,0,.08a.33.33,0,0,1-.1.22l-.17.16a.41.41,0,0,0-.13.24.57.57,0,0,1-.14.25,4.55,4.55,0,0,0-.43.59,5.38,5.38,0,0,1-.43.6.24.24,0,0,0-.08.1.31.31,0,0,1-.09.11v.16a.14.14,0,0,1-.1.06.16.16,0,0,0-.11,0s0,.07,0,.11,0,.09,0,.16a.16.16,0,0,1-.13.06c-.06,0-.08,0-.08,0a.41.41,0,0,0-.06.19.29.29,0,0,1-.1.19.59.59,0,0,1-.11.08l-.11.08c0,.08,0,.13,0,.16s0,.08-.08.11-.08.11-.14.11a.16.16,0,0,0-.13.11s0,.07,0,.11,0,.09,0,.16l-.19.19-.19.19V8.6a.15.15,0,0,1-.11.05.15.15,0,0,0-.11.06,2.3,2.3,0,0,1-.27.22.8.8,0,0,1-.54.05.54.54,0,0,1-.38-.11,3.93,3.93,0,0,0-.32-.27c-.08-.07-.2-.18-.38-.32a.63.63,0,0,1-.27-.49m.21-1a.3.3,0,0,0-.1.32c.1,0,.17,0,.18-.08a.85.85,0,0,1,.09-.24.75.75,0,0,0,.27-.44c0-.07.06-.1.08-.08s0,0,0,0a.26.26,0,0,0,.11-.19.3.3,0,0,1,.11-.18s0-.08.08-.14a.19.19,0,0,0,.08-.13c0-.08,0-.1,0-.09s.05,0,.08,0a.32.32,0,0,0,.11-.19.49.49,0,0,1,0-.19.59.59,0,0,1,.11-.08l.11-.08s0-.11,0-.22a.59.59,0,0,1,.11-.08l.11-.08a.15.15,0,0,0,0-.08s0,0,.06-.08a.65.65,0,0,1,.16-.22l.24-.38.25-.38a.24.24,0,0,1,.13-.13.27.27,0,0,0,.14-.14.15.15,0,0,0,0-.08s0,0,.06-.08a.93.93,0,0,1,.16-.22c0-.07.06-.13.08-.19a.59.59,0,0,1,.14-.19s.05,0,.16-.1a.21.21,0,0,0,0-.11.43.43,0,0,1,.06-.17l0,0h.11a.47.47,0,0,0,0-.16.35.35,0,0,1,.06-.16.42.42,0,0,1,.16-.19c.07-.06.07-.14,0-.25s0-.16-.08-.05-.12.14-.19.11a2,2,0,0,1-.65.86v.17s0,0-.08,0-.08,0-.08.05-.1.13-.09.17a.08.08,0,0,1,0,.1.4.4,0,0,1-.14.17.35.35,0,0,0-.13.16,1.2,1.2,0,0,0-.27.32l-.22.22a.34.34,0,0,0-.11.16.21.21,0,0,1-.13.22.18.18,0,0,0-.14.16c0,.07,0,.1,0,.08s0,0-.08,0l-.13.22a.76.76,0,0,1-.14.16v.16a.35.35,0,0,1-.13.16.44.44,0,0,0-.14.16.21.21,0,0,0,0,.09l0,.08a.21.21,0,0,1-.09.13c0,.06-.08.1-.08.14s0,.1,0,.08,0,0-.09,0-.13.27-.19.37a.91.91,0,0,1-.18.27v.22h-.06v.16h-.11v.17Z" />
        <path class="live-1"
            d="M128.73,17.36l.08.11a.28.28,0,0,0,.08.11h.16l.41.43a1.66,1.66,0,0,1,.35.6,1.52,1.52,0,0,1,0,.84,9.75,9.75,0,0,0-.24,1.05.54.54,0,0,0-.06.27.68.68,0,0,1,0,.27.23.23,0,0,1,0,.11.37.37,0,0,0,0,.16v.22a.79.79,0,0,0-.19.38c-.06.18-.12.36-.19.54a3.52,3.52,0,0,0-.17.35,2.72,2.72,0,0,0-.1.41v.16a.83.83,0,0,0-.19.4c-.06.2-.12.39-.19.57-.07,0-.11,0-.11.06a2.71,2.71,0,0,0-.11.37.67.67,0,0,0,0,.3.61.61,0,0,1-.06.3.21.21,0,0,0-.11.05l0,.11a.21.21,0,0,0,0,.16.26.26,0,0,1,0,.11s0,.05,0,0-.06,0-.06.08a.61.61,0,0,0,0,.16c0,.08,0,.11,0,.11a2.51,2.51,0,0,0-.16.6l-.24.62c-.09.23-.17.48-.25.73v.22a.47.47,0,0,0,0,.16l-.06.11a1.21,1.21,0,0,0-.18.56,4.41,4.41,0,0,1-.19.73v.22a.73.73,0,0,0-.14.46,3,3,0,0,1-.13.68s-.06,0-.06.05v.38h-.11a1.1,1.1,0,0,0,0,.4,1,1,0,0,1-.08.46,3.44,3.44,0,0,0-.19.82c-.06.36-.12.68-.19,1,0,.07.06.08.08,0s.06-.07.13,0a.24.24,0,0,1,.06-.27l.21-.22a.43.43,0,0,0,.14-.24.47.47,0,0,1,.13-.24l.19-.19.19-.19a.15.15,0,0,0,.06-.11.32.32,0,0,1,0-.16.49.49,0,0,1,.16-.19l.22-.19a.1.1,0,0,0,0-.11.19.19,0,0,1,0-.16l.19-.19.19-.19a.54.54,0,0,0,.14-.22.48.48,0,0,1,.13-.21.28.28,0,0,1,.11-.14.38.38,0,0,0,.11-.08v-.16h.11a1.93,1.93,0,0,1,.27-.49c0-.07.06-.11.08-.11s0,0,.08-.05a.34.34,0,0,0,.05-.16.43.43,0,0,1,.06-.17l.19-.19.19-.18a.21.21,0,0,0,0-.11.43.43,0,0,1,.06-.17s0-.05.05-.05h.11a.54.54,0,0,0,.05-.16.35.35,0,0,1,.06-.16l.16-.17a.47.47,0,0,0,.13-.24.49.49,0,0,1,.14-.24.78.78,0,0,0,.21-.17.77.77,0,0,0,.19-.29,2.29,2.29,0,0,1,.19-.35c.11-.11.17-.18.17-.22a.18.18,0,0,0,0-.11.47.47,0,0,1,.05-.16l.19-.19.19-.19a.15.15,0,0,0,.06-.11.34.34,0,0,1,.05-.16s0-.11.16-.22a.14.14,0,0,0,.06-.1.58.58,0,0,1,0-.17s0-.05.08-.05.08,0,.08-.06a.14.14,0,0,0,.06-.1.58.58,0,0,1,.05-.17l.11-.08a.26.26,0,0,0,.11-.08,4.63,4.63,0,0,1,.24-.43l.3-.49a.3.3,0,0,1,.11-.13.1.1,0,0,0,0-.08V24a1.94,1.94,0,0,0,.49-.65,3.71,3.71,0,0,1,.48-.75s0-.07.09-.11.08-.07.08-.11v-.16h.11a.47.47,0,0,0,.13-.25.46.46,0,0,1,.14-.24l.1-.08a.28.28,0,0,0,.11-.08.75.75,0,0,1,.06-.33,1.24,1.24,0,0,1,.19-.16,1.79,1.79,0,0,0,.19-.16v-.22a.54.54,0,0,1,.21-.05c.07,0,.09,0,.06-.11a13.85,13.85,0,0,1,2,.14,10.31,10.31,0,0,0,2.32,0l1.22-.1a6.22,6.22,0,0,1,1.22,0l.32.08a2,2,0,0,1,.44.13,10.71,10.71,0,0,1,1.05.33.66.66,0,0,1,.51.81.45.45,0,0,1-.51.4,10.26,10.26,0,0,0-1.05,0l-.95.14c-.34.05-.7.1-1.06.13h-.54c-.07.11-.29.16-.67.14l-.84,0s0,0,0,.05a.08.08,0,0,1-.08.06c-.07,0-.1,0-.1-.06v-.05c-.08,0-.1,0-.09.05s0,.06,0,.06-.1,0-.08-.06,0-.05,0-.05l-.06.05v.06a.25.25,0,0,1-.18-.08.14.14,0,0,0-.19,0c-.11,0-.17.06-.17.08s0,.06-.1.14-.11.07-.11.1,0,.09-.11.17l-.16.05v.22l-.19.16a.62.62,0,0,0-.19.22,1.36,1.36,0,0,1-.22.27.42.42,0,0,1-.08.13.64.64,0,0,0-.08.14l-.11.1a.24.24,0,0,0-.05.14.16.16,0,0,1-.06.13s0,.06-.08.06-.08,0-.08.05v.17c0,.07-.07.1-.22.1v.22l-.16.05v.22l-.16.05v.22l-.32.16v.22a.15.15,0,0,1-.11.05l-.06.06v.16a1.74,1.74,0,0,0-.27.38s-.06,0-.08,0,0,0,0,.08,0,.11-.08.13a.14.14,0,0,0-.08.14.21.21,0,0,1-.13.13c-.06,0-.08.07-.08.14s0,.12-.09.13a.14.14,0,0,0-.08.14.21.21,0,0,1-.13.13c-.06,0-.08.07-.08.14a.18.18,0,0,1-.08.16.18.18,0,0,0-.09.16.12.12,0,0,1-.1.14c-.08,0-.11.06-.11.13a.15.15,0,0,0-.05.11l-.06.06s0,.1-.16.21v.16l-.14.14-.13.14a1.26,1.26,0,0,1-.22.32.21.21,0,0,0,0,.16.33.33,0,0,1-.11.22.23.23,0,0,0-.11,0l-.11,0a1.12,1.12,0,0,0,0,.27.31.31,0,0,1-.11.22s-.06,0-.08,0,0,0,0,.08a.25.25,0,0,1-.08.19l-.19.19-.54.83c-.18.28-.38.55-.59.84a.55.55,0,0,1-.09.14l-.08.13a.41.41,0,0,1-.1.09.21.21,0,0,0-.11.08v.21a.17.17,0,0,1-.11.06l-.06.05v.16a.31.31,0,0,0-.21.11v.16a1.17,1.17,0,0,0-.14.17l-.13.21s0,.05,0,0,0,0,0,.08a.26.26,0,0,1-.13.14c-.06,0-.08.06-.08.13a.35.35,0,0,1-.11.22l-.16,0v.22l-.11.08a.38.38,0,0,0-.11.08.1.1,0,0,1,0,.08s0,.06,0,.14a1,1,0,0,0-.22.27.79.79,0,0,1-.08.13.51.51,0,0,0-.08.14,1.36,1.36,0,0,1-.22.27.32.32,0,0,1-.08.13,1.09,1.09,0,0,0-.08.14,1.26,1.26,0,0,1-.22.32,3.21,3.21,0,0,1-.16.3,3,3,0,0,1-.22.35s0,0,0,0,0,0,0,.06a.16.16,0,0,1,0,.1.17.17,0,0,0-.06.11.14.14,0,0,1-.11.06l-.05,0v.16a.27.27,0,0,1-.16.11s-.09,0-.17.11a.12.12,0,0,0,0,.13.12.12,0,0,1,0,.14,3.59,3.59,0,0,1-.35.32c-.13.11-.26.22-.41.33s-.18.16-.21.16a.78.78,0,0,1-.3.11,1.62,1.62,0,0,0-.35.11s-.06,0-.06,0,0,0-.05,0a2.31,2.31,0,0,1-.92.11l-.24,0a.34.34,0,0,1-.19-.08.13.13,0,0,1-.14-.11.27.27,0,0,0-.08-.16h-.16a.25.25,0,0,1-.14-.16c0-.07-.08-.11-.19-.11a.28.28,0,0,1-.21-.13,2.8,2.8,0,0,0-.22-.25,1.23,1.23,0,0,1-.27-.16,2,2,0,0,1-.27-.33,1.43,1.43,0,0,0-.22-.26l-.16-.17a.31.31,0,0,0-.21-.11s-.11-.07-.22-.21-.2-.25-.27-.33a.33.33,0,0,0-.06-.19,1.09,1.09,0,0,1-.1-.19v-.21c-.07,0-.1-.08-.08-.14a.67.67,0,0,0,0-.29.37.37,0,0,0-.08-.22.45.45,0,0,1,0-.38c.07,0,.11,0,.11-.05s0-.11-.06-.11,0,0,0-.11a.1.1,0,0,0,.11-.11s0,0-.08,0-.07-.05,0-.08.09-.1,0-.08,0,0,0,0,0-.1,0-.08.06,0,.06,0,0,0-.06,0h0a.93.93,0,0,0,.11-.38c0-.36.07-.76.11-1.19s.09-.89.16-1.35a.23.23,0,0,0,0-.17.19.19,0,0,1,0-.1l.11-.11c0-.07,0-.1,0-.08s0,0-.08,0a.47.47,0,0,1,.05-.16.2.2,0,0,1,0-.11.23.23,0,0,0,0-.11,0,0,0,0,1,.05-.05h.06c0-.08,0-.1-.06-.08s-.05,0-.05,0,0-.1.05-.08.06,0,.06,0,0-.06-.06-.08a.1.1,0,0,1-.05-.08s0-.06.05-.06.06,0,.06,0a.07.07,0,0,1,.05-.08s0-.06,0-.14-.14,0-.1,0l.1-.11a2.48,2.48,0,0,1,.06-.54c.07-.29.15-.59.24-.89s.17-.64.24-1a.83.83,0,0,0,.06-.27,1,1,0,0,1,0-.27.05.05,0,0,1,.06-.06s0,0,0-.05-.08-.13,0-.17a.4.4,0,0,0,.14-.21.54.54,0,0,0,.05-.19.49.49,0,0,1,0-.19.53.53,0,0,0,.06-.13.59.59,0,0,1,0-.14c.07-.36.13-.61.16-.76s0,0,.06,0,0,0,0-.09a.39.39,0,0,0,0-.13.17.17,0,0,1,0-.14.24.24,0,0,1,.16-.16.22.22,0,0,0,0-.22.15.15,0,0,1,0-.16,1,1,0,0,0,.27-.65s.08,0,.11,0,0,0,0-.08h-.05s-.06,0-.06-.11.07-.05.09,0,0,0,0-.08a1.18,1.18,0,0,1,.22-.43l.16-.49a3.67,3.67,0,0,1,.38-.92.33.33,0,0,0,0-.14.53.53,0,0,1,.06-.13,1,1,0,0,1,.08-.3,2.37,2.37,0,0,1,.19-.35.1.1,0,0,1,.11-.11.26.26,0,0,0,0-.19.23.23,0,0,1,0-.19l.22-.21a.26.26,0,0,0,0-.19.2.2,0,0,1,.09-.19s0-.06.08-.08.08,0,.08-.08a.59.59,0,0,0,0-.19.38.38,0,0,1,.06-.19s0-.07.08-.08.08-.05.08-.08a.59.59,0,0,0,.05-.19.38.38,0,0,1,.06-.19c.1-.11.16-.18.16-.22s.1-.14.08-.19a.23.23,0,0,1,0-.19l.11-.08a.35.35,0,0,0,.1-.08.48.48,0,0,0,.06-.24.34.34,0,0,1,.11-.25,2.57,2.57,0,0,0,.21-.24.59.59,0,0,1,.33-.19,2,2,0,0,1,.46-.08.5.5,0,0,1,.4.08,3.21,3.21,0,0,0,.62.16,4.59,4.59,0,0,1,.63.16M122.5,31.05v.22c0,.25,0,.28.11.08s0-.3-.11-.3m.22-.11a.43.43,0,0,0,.06-.38c0-.18,0-.28,0-.32s-.07-.12-.11,0a2,2,0,0,0-.08.33,1,1,0,0,0,0,.35c0,.11,0,.12.08.05m4-12.44c0,.07,0,.1,0,.08s0,0-.08,0a5.12,5.12,0,0,1-.27.76c-.11.21-.22.44-.33.67s-.21.48-.32.73-.16.32-.25.52a1.15,1.15,0,0,0-.13.4c0,.07,0,.1,0,.08s0,0-.08,0a.28.28,0,0,0,0,.22.31.31,0,0,1,0,.21l-.11.11a.54.54,0,0,0-.11.32,1.26,1.26,0,0,1,0,.33l-.11.11a.52.52,0,0,0-.11.32.62.62,0,0,1-.11.33,6.09,6.09,0,0,1-.32.84,1.87,1.87,0,0,0-.22.83l0,.11h-.06c0,.18-.07.35-.11.52a.67.67,0,0,1-.16.35v.27a0,0,0,0,1,0,0,.05.05,0,0,0-.06.06,2.13,2.13,0,0,0-.13.59,1.88,1.88,0,0,1-.14.6,1.47,1.47,0,0,1-.11.48h-.05a.11.11,0,0,0,0,.17.18.18,0,0,1-.06.21V29a1,1,0,0,1-.08.22.75.75,0,0,0,0,.27l0,.06a.74.74,0,0,0,0,.43c0,.07,0,0,0-.22s0-.11.06-.11h0a2,2,0,0,0,.06-.35,1.25,1.25,0,0,1,0-.3c0-.07,0-.09,0-.08s0,0,0,0a5.53,5.53,0,0,0,.17-.57,3.05,3.05,0,0,1,.16-.52,3.8,3.8,0,0,1,.13-.51,3.09,3.09,0,0,1,.14-.35.38.38,0,0,0,0-.19.38.38,0,0,1,.06-.19v-.11l0-.05A1,1,0,0,0,124,26a.66.66,0,0,1,.11-.35,1.16,1.16,0,0,1,.11-.27.54.54,0,0,0,.05-.22v-.1s0-.06,0-.06h.06a1.32,1.32,0,0,0,.11-.46,1.46,1.46,0,0,1,0-.4.05.05,0,0,1,.06-.06,0,0,0,0,0,0-.05.37.37,0,0,0,.11-.27.33.33,0,0,1,.11-.27c.14-.36.27-.71.4-1.06s.26-.67.41-1l.11-.11A1.39,1.39,0,0,0,126,21a1.46,1.46,0,0,1,.11-.3,1.25,1.25,0,0,0,.16-.35,1.18,1.18,0,0,1,.11-.29,2,2,0,0,0,.18-.36.71.71,0,0,0,.09-.29.86.86,0,0,0,.16-.3.71.71,0,0,1,.16-.3,2.26,2.26,0,0,1,.08-.41c.06-.19,0-.33-.08-.4,0,.18,0,.3-.08.35a.22.22,0,0,0-.13.19m-1,17.8a.28.28,0,0,1,.11-.08.41.41,0,0,0,.1-.09c0-.07,0-.12,0-.16s0-.09,0-.16l.11,0,.1,0v-.22l.19-.19.19-.19a.08.08,0,0,0,0-.11s0-.09,0-.16a.27.27,0,0,0,.21-.11v-.16l.19-.19c.06,0,.12-.12.19-.19s.05-.12,0-.13,0-.07.08-.14.05-.11.16-.11V33.7c.11-.11.16-.18.16-.22a3.8,3.8,0,0,0,.6-.75c.11-.15.22-.29.32-.44a5,5,0,0,0,.33-.48.32.32,0,0,0,.11-.19.36.36,0,0,1,.05-.19.15.15,0,0,1,.11-.06.14.14,0,0,0,.11-.05.19.19,0,0,0,0-.13.18.18,0,0,1,.06-.14.18.18,0,0,0,.05-.11.15.15,0,0,0,0-.08s0,0,.06-.08l.19-.19.19-.19a.19.19,0,0,0,.05-.13.22.22,0,0,1,.05-.14s0-.05,0-.05,0,0,0-.06a.15.15,0,0,0,0-.08s0,0,.06-.08l.21-.22.06-.16c0-.07,0-.1,0-.08s.05,0,.09,0l.13-.21a.74.74,0,0,1,.14-.17v-.16l.19-.19.19-.19a.47.47,0,0,0,.05-.16.54.54,0,0,1,0-.16l.16-.06v-.21c.08-.07.15-.14.22-.19a.56.56,0,0,0,.16-.19.18.18,0,0,0,.06-.14.21.21,0,0,1,.05-.13l.11-.11s0-.06,0-.08,0,0,.06-.08l.16-.16a3.73,3.73,0,0,1,.27-.49,5.18,5.18,0,0,0,.46-.65c.13-.22.26-.43.41-.65a.47.47,0,0,0,.13-.24.49.49,0,0,1,.14-.25l.16-.16a.31.31,0,0,0,.11-.21c0-.08,0-.1,0-.08s0,0,.09,0a2.25,2.25,0,0,1,.27-.38v-.16a.24.24,0,0,1,.1-.08.27.27,0,0,0,.11-.14v-.05s0-.06,0-.06,0,0,0,0,0-.1,0-.08.05,0,.08,0a.41.41,0,0,0,.14-.22.43.43,0,0,1,.14-.21l.21-.22.06-.16c0-.07,0-.1,0-.08s.05,0,.08,0a.27.27,0,0,0,.11-.19.32.32,0,0,1,.11-.19s0-.05.08-.05.08,0,.08-.06a.16.16,0,0,0,.06-.13.17.17,0,0,1,0-.14s0,0,.05,0,0,0,0-.09l-.16-.05c0,.07,0,.1-.08.08s-.08,0-.08.08a3,3,0,0,0-.54.71l-.43.7s0,.06-.06.08a.35.35,0,0,0-.11.14s0,0,0,.1,0,.06-.05.06,0,.1,0,.08,0,0-.08,0l-.11.21a.82.82,0,0,1-.16.22.26.26,0,0,0-.11.19.41.41,0,0,1-.06.19.16.16,0,0,1-.1.05.14.14,0,0,0-.11.06.32.32,0,0,0-.05.16.17.17,0,0,1-.06.11s0,.1-.16.21a.15.15,0,0,0-.06.11.32.32,0,0,1,0,.16.15.15,0,0,0-.05.11s-.06.06-.06.08a.15.15,0,0,1,0,.08.26.26,0,0,1-.11.08.34.34,0,0,0-.11.14.39.39,0,0,0-.13.22.51.51,0,0,1-.14.21,2.27,2.27,0,0,0-.24.38c-.06.11-.12.24-.19.38a.38.38,0,0,1-.11.08.28.28,0,0,0-.11.14,0,0,0,0,0-.05,0l-.06.11c0,.07,0,.1,0,.08s0,0,0,0a.73.73,0,0,0-.16.21.69.69,0,0,1-.17.22.27.27,0,0,0-.1.19.41.41,0,0,1-.06.19s0,.05-.08.05-.08,0-.08.06-.1.12-.08.16,0,.07,0,.11l-.21.21a.59.59,0,0,0-.14.19.5.5,0,0,1-.13.19V29l-.19.19-.19.19c0,.08-.05.12,0,.14s0,.06-.08.13-.06,0-.16.11v.16l-.19.19-.19.19a.43.43,0,0,0-.06.17.16.16,0,0,1,0,.1s0,.06-.11.06a0,0,0,0,0,0,.05v.22l-.19.19-.19.19a.14.14,0,0,0-.06.1.37.37,0,0,1-.05.17l-.05.05-.11.22c-.07.07-.14.13-.19.19l-.19.19a.15.15,0,0,0-.05.13.18.18,0,0,1-.06.14l-.11.1a.2.2,0,0,1,0,.09s0,0,0,.08-.14.13-.19.19l-.19.18a.37.37,0,0,0,0,.17.17.17,0,0,1-.06.11s0,0-.11,0a0,0,0,0,0-.05,0v.22a.65.65,0,0,1-.22.16.41.41,0,0,0-.16.16c-.07.08-.1.13-.08.17s0,.09,0,.16a.12.12,0,0,1-.1,0h-.11v.22a.51.51,0,0,1-.17.19.58.58,0,0,0-.16.19c-.07,0-.1.07-.08.11s0,.09,0,.16a.29.29,0,0,1-.13.08.47.47,0,0,0-.14.08.54.54,0,0,0,0,.16.58.58,0,0,1,0,.17.21.21,0,0,1-.11.05l-.11.22-.16.16a.38.38,0,0,0-.06.19.54.54,0,0,1-.05.19.26.26,0,0,1,0,.16s0,.05.08.05a2.49,2.49,0,0,1,.27-.48" />
        <path class="live-1"
            d="M161.94,20.61a1,1,0,0,1,.51.19,4.64,4.64,0,0,1,.36.41,2,2,0,0,1-.19.51l-.3.51s0,.05,0,0,0,0,0,.08a1.54,1.54,0,0,1-.27.35l-.32.35a1.17,1.17,0,0,0-.14.17.63.63,0,0,1-.13.16l-.27.27a.29.29,0,0,0-.11.19.32.32,0,0,1-.11.19.66.66,0,0,1-.3.24q-.24.14-.24.3s0,.07-.08.11a.14.14,0,0,0-.08.1,4.15,4.15,0,0,1-.35.33l-.41.38v.21c-.07,0-.12,0-.16,0s0,0,0,.08-.11.2-.33.38a2.4,2.4,0,0,0-.43.43,1.39,1.39,0,0,1-.38.52q-.27.24-.54.51a5.41,5.41,0,0,0-.54.65,1.22,1.22,0,0,1-.3.3,1.07,1.07,0,0,0-.3.3.08.08,0,0,0,0,.1.29.29,0,0,1,0,.17l-.35.27a.84.84,0,0,0-.35.38s-.06.1-.17.21l-.62.62-.68.68a1.19,1.19,0,0,0-.29.3,3.27,3.27,0,0,1-.3.35,1.67,1.67,0,0,1-.3.22l-.35.21a6.86,6.86,0,0,0-.54.62,5.87,5.87,0,0,1-.54.63l-.16.05a.58.58,0,0,0-.17,0l-.05.17a.32.32,0,0,1-.19.11.29.29,0,0,0-.19.1.3.3,0,0,0-.13.11.81.81,0,0,1-.14.16.37.37,0,0,0-.16.14.42.42,0,0,1-.16.13.12.12,0,0,1-.14,0s-.1,0-.13.08-.06,0-.06.08,0,.09,0,.09H150c0,.07-.07.1-.09.1a.56.56,0,0,0-.13.11.34.34,0,0,0-.14.11.69.69,0,0,1-.13.16.27.27,0,0,1-.16.08l-.22.08a.59.59,0,0,0-.08.11.76.76,0,0,1-.08.11l-.22.11-.27.27h-.16c-.07,0-.11.06-.11.08s0,0-.11.08l-.11.14a.35.35,0,0,1-.16.13.34.34,0,0,1-.24.11.38.38,0,0,0-.25.11.73.73,0,0,0-.1.13.4.4,0,0,1-.17.14h-.16a1.55,1.55,0,0,1-.24.19l-.35.19-.17.16H146a.08.08,0,0,0,0,.11h-.21v.11h-.17V38h-.21V38h-.17v.11H145v.1h-.16a1.47,1.47,0,0,1-.49.17l-.54.24c-.22.09-.43.17-.65.24a6.64,6.64,0,0,1-1,.14,4.34,4.34,0,0,1-.89,0v0l-.11-.06a1.08,1.08,0,0,1-.52-.13,4,4,0,0,0-.51-.24,5.68,5.68,0,0,1-.65-.38.27.27,0,0,1-.14-.14.21.21,0,0,0-.13-.13.26.26,0,0,0-.19-.11.32.32,0,0,1-.19-.11c-.07,0-.12-.07-.13-.11l-.14-.16a2.45,2.45,0,0,1-.54-.46,6.37,6.37,0,0,0-.59-.57,1.15,1.15,0,0,1-.28-.19.85.85,0,0,1-.21-.24.18.18,0,0,0-.08-.16.93.93,0,0,1-.19-.17v-.16a1.31,1.31,0,0,1-.27-.38.81.81,0,0,1-.17-.46c0-.23-.07-.49-.1-.78a1.09,1.09,0,0,1-.11-.27s0,0,.08,0,.06-.06,0-.06-.09-.09-.06-.08.06,0,.06,0a.43.43,0,0,0-.06-.17A.54.54,0,0,1,136,33a.17.17,0,0,1,.05-.14s.06-.06.06-.13l-.06-.06a0,0,0,0,1-.05-.05v-.27l.05-.06.06,0s0-.06-.06-.08a.1.1,0,0,1-.05-.08s0-.06.05-.06.06,0,.06-.05h-.06s-.05,0-.05-.11,0,0,.08,0,.06-.07,0-.11,0-.18,0-.43l.16-1.14V30l.11-.32c.07,0,.1-.07.08-.11s0-.09,0-.16v-.17h.1a1.89,1.89,0,0,1,0-.29,2.13,2.13,0,0,0,0-.3.68.68,0,0,0,0-.27.54.54,0,0,1,.06-.27s0-.07.08-.11a.14.14,0,0,0,.08-.11v-.27a1.18,1.18,0,0,1,.11-.19,1.09,1.09,0,0,0,.1-.19,2.35,2.35,0,0,0,.19-.43c.06-.14.12-.31.19-.49l.06-.1a.14.14,0,0,1,.11-.06.19.19,0,0,0,0-.16.37.37,0,0,1,0-.16,1.23,1.23,0,0,0,.27-.38c.07-.07.1-.12.08-.14s0-.06,0-.13.11-.09.11-.06a.5.5,0,0,1,.08-.27l.19-.21a.32.32,0,0,0,.11-.25.34.34,0,0,1,.11-.24s0,0,.16-.11v-.16H139a.12.12,0,0,0,0-.14.12.12,0,0,1,0-.13.15.15,0,0,1,.11-.05.15.15,0,0,0,.11-.06.33.33,0,0,0,.05-.14.53.53,0,0,1,.06-.13s0,0,0,0,0,0,0-.08a.24.24,0,0,1,.08-.13l.14-.14a.73.73,0,0,1,.16-.21,2.28,2.28,0,0,0,.22-.28.78.78,0,0,1,.11-.18.85.85,0,0,1,.16-.19l.16-.17.3-.27a1.52,1.52,0,0,0,.3-.37s0-.05,0,0,.05,0,.08-.08a.1.1,0,0,1,.11-.11.2.2,0,0,0,.16-.06.57.57,0,0,0,.14-.21.25.25,0,0,1,.24-.16s.09,0,.17-.11a.59.59,0,0,1,.21-.16,1.17,1.17,0,0,0,.14-.17.63.63,0,0,1,.13-.16,1,1,0,0,1,.3-.19,2,2,0,0,0,.35-.19,4,4,0,0,0,.51-.24l.52-.3s0,0,0-.05,0-.06.08-.06.11,0,.11,0,0,0,.05,0a.25.25,0,0,1,.24-.08.36.36,0,0,0,.25,0v-.05l.05-.06H145a.33.33,0,0,1,.19,0c.05,0,.15,0,.3-.08a5.52,5.52,0,0,1,1.38-.05,6.15,6.15,0,0,1,1.43.27l.21.11a.63.63,0,0,0,.22.05l.78.22a6.73,6.73,0,0,1,.74.27l.19.11a.35.35,0,0,0,.18,0,1.48,1.48,0,0,1,.25.16l.24.22c0,.07.08.1.14.08a.11.11,0,0,1,.13,0,.93.93,0,0,1,.19.27.93.93,0,0,0,.19.27.14.14,0,0,0,.08.14c.06,0,.08,0,.08.08a.07.07,0,0,1,0,.1s0,.06.08.06a1.52,1.52,0,0,1-.16,1c.07.18.16.39.27.62a1.86,1.86,0,0,1,.16.79,3.08,3.08,0,0,1-.38,1.3,1.46,1.46,0,0,1-.05.38l-.11.08a.38.38,0,0,0-.11.08.49.49,0,0,0,0,.19.45.45,0,0,1-.06.19s0,.07-.08.1-.08.08-.08.11a.59.59,0,0,0,0,.19.38.38,0,0,1-.06.19s0,.06-.08.08-.08,0-.08.08a.41.41,0,0,0-.05.19.38.38,0,0,1-.06.19l-.16.16a2.08,2.08,0,0,0-.22.33l-.16.16v.22l-.11,0-.1,0a.62.62,0,0,0-.17.27.76.76,0,0,1-.21.33l-.82.81h-.21c0,.07-.06.11-.08.11s-.05,0-.08.1v.17a.58.58,0,0,1-.17.05.14.14,0,0,0-.1.06,1,1,0,0,1-.17.13.76.76,0,0,0-.16.14l-.11.08a1,1,0,0,0-.16.13.3.3,0,0,0-.13.11.81.81,0,0,1-.14.16h-.22a2.92,2.92,0,0,1-1,.79,2.27,2.27,0,0,1-1.46.29,1.67,1.67,0,0,1-.76-.16s-.05,0,0-.05,0-.06-.08-.06h-.11s-.06,0-.08-.08,0-.08-.08-.08h-.16a.92.92,0,0,1-.14-.19.49.49,0,0,0-.19-.19.16.16,0,0,0-.11,0,.46.46,0,0,1-.16-.06l-.3-.32-.35-.43s-.06,0-.08,0,0,0,0-.06-.06-.1-.17-.21a24.76,24.76,0,0,0-1,3.22,12.43,12.43,0,0,0-.3,3.59s.11,0,.22,0,.18,0,.22,0a.68.68,0,0,1,.27-.05h.21a.93.93,0,0,1,.49-.22,1.63,1.63,0,0,1,.43,0s.05-.06,0-.08,0,0,.08,0a.74.74,0,0,0,.3-.11,2.6,2.6,0,0,1,.35-.16h.22v-.11h.16l.27-.22a.71.71,0,0,1,.38-.16.18.18,0,0,1,.11,0c.11,0,.16,0,.16,0s.05,0,.05-.09,0-.08.06-.08h.16v-.11h.22c0-.1.09-.16.16-.16h.22a.7.7,0,0,1,.27-.32c.14,0,.21,0,.21-.08s.06-.08.16-.08h.11a.31.31,0,0,0,.14-.14.29.29,0,0,1,.13-.14h.16a.27.27,0,0,0,.11-.21l.19-.08.19-.08a1.17,1.17,0,0,0,.14-.17.24.24,0,0,1,.13-.1h.22V33h.16v-.11a1.32,1.32,0,0,1,.19-.08l.19-.08.14-.16a.62.62,0,0,1,.13-.17,1.21,1.21,0,0,0,.38-.16.43.43,0,0,0,.16-.13.85.85,0,0,1,.11-.14c.11-.11.31-.27.59-.49a2.43,2.43,0,0,0,.41-.38l.41-.43a.29.29,0,0,1,.19-.11.29.29,0,0,0,.19-.11l.24-.27a1.41,1.41,0,0,1,.35-.27.19.19,0,0,1,0-.1.52.52,0,0,0,0-.11h.22l.54-.54q.27-.27.6-.54a2.8,2.8,0,0,1,.54-.6h.16a.19.19,0,0,0,0-.13.18.18,0,0,1,.06-.14s.07,0,.11,0a.06.06,0,0,0,.1,0A6.88,6.88,0,0,1,155,26.59c.43-.38.84-.77,1.24-1.17.65-.65,1.29-1.29,1.92-1.94l1.92-2,.24-.24a1.76,1.76,0,0,1,.3-.24,1.13,1.13,0,0,1,.27-.43.7.7,0,0,1,.6-.11.41.41,0,0,1,.19.05.29.29,0,0,0,.19.06s.05,0,.05.05M139.6,25.86c.14-.25.29-.49.43-.71l.49-.7a2.22,2.22,0,0,0,.24-.3l.25-.35a.29.29,0,0,1,.1-.13,1.17,1.17,0,0,0,.17-.14.29.29,0,0,0,.1-.19.41.41,0,0,1,.06-.19c.11-.11.21-.21.32-.3l.27-.24a3,3,0,0,0,.22-.35.79.79,0,0,1,.27-.3q.27-.27.54-.51a4,4,0,0,0,.49-.52h.16a3,3,0,0,0,.3-.32l.24-.27a3.52,3.52,0,0,0,.38-.16v-.11s.13-.06.27-.08.13,0-.05-.08a1,1,0,0,1-.25.16c-.09,0-.13.07-.13.11h-.22v.11h-.16a.16.16,0,0,0-.16.1,1,1,0,0,1-.11.17h-.11a.44.44,0,0,0-.27.16.81.81,0,0,0-.14.16s-.06.07-.13.11a.08.08,0,0,1-.11,0,.16.16,0,0,0-.16.08,1.71,1.71,0,0,1-.11.14,1.64,1.64,0,0,0-.35.32c-.13.14-.23.22-.3.22a.25.25,0,0,0-.19.08l-.13.13a.21.21,0,0,0-.06.16.28.28,0,0,1-.11.22l-.27.24a1.93,1.93,0,0,0-.27.3l-.48.65a13.79,13.79,0,0,0-.92,1.38c-.29.49-.54,1-.76,1.43a2.79,2.79,0,0,0-.19.33.76.76,0,0,0-.08.32c0,.08-.06.1-.08.08s0,0,0,0q-.16.43-.3.84l-.29.84a1.12,1.12,0,0,1,0,.24,1.12,1.12,0,0,0,0,.24h-.11v.28s0,.05-.05.05,0,0,0,.05V30a.05.05,0,0,1-.06.06.47.47,0,0,0,0,.24.23.23,0,0,1-.08.24v.27c0,.08,0,.09.06.06a.25.25,0,0,0,.05-.16v-.06a19,19,0,0,1,1.19-3.3v-.05s0-.06,0-.06,0,0,0-.05a.14.14,0,0,1,0-.11.29.29,0,0,1,.08-.19.24.24,0,0,0,.08-.19c0-.07,0-.1,0-.08s0,0,.08,0a2.29,2.29,0,0,0,.19-.35c.05-.12.12-.26.19-.4m5.62-1.46a1.62,1.62,0,0,0-.37.37l-.11.09a.21.21,0,0,0-.11.08.11.11,0,0,0,0,.13.14.14,0,0,1,0,.14l-.38.38-.33.48-.16.17a.32.32,0,0,0-.05.16.17.17,0,0,1-.06.11s0,.1-.16.21a.89.89,0,0,0-.22.35,1.92,1.92,0,0,1-.16.41.13.13,0,0,1-.11.05s-.07,0-.11.11a.37.37,0,0,0,.11.27.42.42,0,0,0,.49.11s.05,0,.05-.05,0-.11.06-.11a.89.89,0,0,1,.3-.14.44.44,0,0,0,.24-.13l.38-.22a0,0,0,0,0,.05-.05c0-.07,0-.11.06-.11a.73.73,0,0,1,.21-.16.18.18,0,0,0,.11-.17c0-.07,0-.09,0-.05s0,0,.06,0l.49-.38.48-.38a.21.21,0,0,0,.08-.11l.08-.1c.15-.11.31-.25.49-.41a2.58,2.58,0,0,0,.38-.4,1.6,1.6,0,0,1,.22-.28.29.29,0,0,0,.1-.21c0-.11.07-.16.09-.16a.56.56,0,0,0,.13-.11.17.17,0,0,0,0-.14.16.16,0,0,1,.06-.13.09.09,0,0,1,.05-.08.34.34,0,0,0,.11-.14.4.4,0,0,0,.06-.13.33.33,0,0,1,.05-.14H148v-.16s.05-.11.16-.22a.9.9,0,0,0,.08-.21.41.41,0,0,1,.14-.22s0,0,.05,0V22.5l.11-.08a.59.59,0,0,0,.11-.08,1.19,1.19,0,0,1,.27-.49.14.14,0,0,1,0-.13s0,0,0,0-.05.09-.14.06a.25.25,0,0,0-.24,0c-.11.1-.16.18-.16.21a.72.72,0,0,1-.33.06l-.08.1a.28.28,0,0,1-.08.11.4.4,0,0,1-.16.06.13.13,0,0,0-.11.05.58.58,0,0,0-.19.16,1.3,1.3,0,0,1-.19.22.21.21,0,0,1-.16,0,.09.09,0,0,0-.11,0,.3.3,0,0,0-.13.11.44.44,0,0,1-.09.11,5.74,5.74,0,0,0-.81.65l-.19.19-.19.19a2,2,0,0,0-.38.38m4-1.25c0,.07,0,.1,0,.08s0,0-.08,0a.52.52,0,0,0-.08.33.21.21,0,0,1-.08.21l-.22.22c-.07.14-.13.27-.19.38l-.13.27a.14.14,0,0,0-.06.1.51.51,0,0,1-.05.17.18.18,0,0,1-.11,0,.15.15,0,0,0-.11.06.14.14,0,0,0,0,.13.14.14,0,0,1,0,.14l-.38.37a1.79,1.79,0,0,0-.16.19.93.93,0,0,1-.17.19,1,1,0,0,0-.16.25.17.17,0,0,1-.16.13c-.07,0-.1,0-.08,0s0,0,0,0a3,3,0,0,0-.48.46,3.19,3.19,0,0,1-.44.4c-.07,0-.12.07-.13.11a.76.76,0,0,1-.08.11.17.17,0,0,1-.14,0,.12.12,0,0,0-.13,0,.5.5,0,0,0-.14.19.44.44,0,0,1-.14.19.32.32,0,0,1-.16.05.4.4,0,0,0-.16.06.14.14,0,0,0-.05.11s0,.05-.11.05-.09,0-.06.08.09.07.17,0,0-.1.05-.08.07,0,.11,0,.11-.05.21-.16l.14-.06a.37.37,0,0,0,.14-.05s.06,0,.08-.08,0-.08.08-.08a1.92,1.92,0,0,1,.48-.27l.19-.19.19-.19.44-.33a1.62,1.62,0,0,0,.37-.37,3.39,3.39,0,0,0,.46-.41c.2-.2.3-.33.3-.41s0-.09,0-.08,0,0,.08,0a.35.35,0,0,0,.11-.19.26.26,0,0,1,.11-.19l.16-.16V25a.21.21,0,0,1,0-.11.17.17,0,0,1,.06-.11c0-.07,0-.09,0-.08s0,0,0,0a1.48,1.48,0,0,0,.16-.3.38.38,0,0,1,.16-.19V24h.06V23.8h.11v-.16a.28.28,0,0,1,.11-.08.28.28,0,0,0,.1-.14c.08-.14.15-.29.22-.43a1.1,1.1,0,0,0,.11-.49c.07,0,.11,0,.11-.08s0-.08-.11-.08a1.48,1.48,0,0,0-.33.54l-.13.14a.19.19,0,0,0-.08.13m11-.76c-.36.29-.67.55-.92.79s-.51.49-.79.76l-.72.73c-.55.57-1.12,1.16-1.74,1.75l-1.84,1.82a6.37,6.37,0,0,0-.73.75,4.48,4.48,0,0,1-.67.71.22.22,0,0,1-.14.05.16.16,0,0,0-.13.06l-.3.27a2.13,2.13,0,0,0-.3.27l-.19.19-.19.19a3.82,3.82,0,0,0-.51.48q-.24.27-.51.54a1.07,1.07,0,0,1-.38.33,1.05,1.05,0,0,0-.38.32,6.88,6.88,0,0,0,.86-.62c.29-.23.58-.48.87-.73a4.47,4.47,0,0,1,.35-.41l.35-.35a2.7,2.7,0,0,1,.44-.35l.43-.3.38-.4a1.6,1.6,0,0,1,.38-.35l1.1-1.11q.57-.57,1.11-1.17c.44-.46.9-.95,1.41-1.46s1.05-1,1.62-1.62l.76-.76Z" />
        <polyline class="live-2" points="0.94 10.77 0.94 10.77 0.94 10.78 0.94 10.77" />
        <path class="live-2" d="M95.62,32.62a2.14,2.14,0,1,1-2.14-2.14,2.11,2.11,0,0,1,2.14,2.14" />
        <path class="live-2"
            d="M95.42,22.65c-.29-2.92-1.52-5.17-4.31-6.19A8.9,8.9,0,0,0,88,15.92a8.79,8.79,0,0,0-3.12.57,5.82,5.82,0,0,0-3.81,4,12.26,12.26,0,0,0-.54,3.4c-.06,2.28,0,4.56,0,6.83v3.42h3.8v-.68c0-3.28,0-6.57,0-9.89,0-2.35,1.12-3.73,3.11-3.91a6,6,0,0,1,1.69.08,2.72,2.72,0,0,1,2.25,1.95,18.77,18.77,0,0,1,.52,2.09h3.5s0,0,0,0c0-.37,0-.75,0-1.12" />
        <path class="live-2"
            d="M70.42,16.08a10.45,10.45,0,0,0-1.83-.16,8.91,8.91,0,0,0-9.05,7.68c-.94,5.58,2.27,10.25,7.72,11,4.7.7,8.67-1.91,9.77-5.4h0v0s0,0,0,0H73.5l-.79.6-.36.25a6.21,6.21,0,0,1-.91.54,6.07,6.07,0,0,1-5.46,0,4.88,4.88,0,0,1-2.61-3.73H77.75c.58-4.85-1.8-9.73-7.33-10.7m-6.86,7.65a5.22,5.22,0,0,1,10.23,0Z" />
        <path class="live-2"
            d="M35,17.14v-.65H31.27v1c0,3,.05,6-.08,9a4.16,4.16,0,0,1-2.79,4.07,6.28,6.28,0,0,1-2.72.29,3.88,3.88,0,0,1-3.5-2.95,9.05,9.05,0,0,1-.31-2c-.05-2.16,0-4.36,0-6.55V16.49l-3.76,0c0,.07,0,.18,0,.28,0,3.16,0,6.29,0,9.45a10,10,0,0,0,1,4.31c2.26,4.83,9.8,5.43,12.15,1.24h0l.13-.19h0A37.27,37.27,0,0,1,31,35.75a3.57,3.57,0,0,1-3.1,3.11,9.72,9.72,0,0,1-2.95,0,3.77,3.77,0,0,1-2.87-2.14c-.08-.16-.09-.37-.22-.37l-3.59,0a.39.39,0,0,0-.06.19l.08.31a7.16,7.16,0,0,0,4,4.73,10.67,10.67,0,0,0,7.5.36,6.43,6.43,0,0,0,4.54-4.28,14.52,14.52,0,0,0,.65-4c.08-5.48,0-11,0-16.45" />
        <path class="live-2"
            d="M8.87,8.56a6.06,6.06,0,0,0-4,3.31,9.43,9.43,0,0,0-.84,4.25v3.95H0v3.7H4.07V34.13H7.86V23.75h6.05V20h-6c0-1.23-.06-3.58,0-4.72a3.4,3.4,0,0,1,3-3.53,3.55,3.55,0,0,1,3.71,1.46l3.49-1.56a6.08,6.08,0,0,0-3.86-3.13,9.6,9.6,0,0,0-2.7-.4,9.46,9.46,0,0,0-2.68.4" />
        <path class="live-2"
            d="M57.36,24.45a8.48,8.48,0,0,0-4.85-7.65c-3.37-1.64-7.57-1-9.63,2.2l-.16.34V8.66H39V9h0c0,5.53,0,11,0,16.55a9.45,9.45,0,0,0,1.35,5,8.47,8.47,0,0,0,7.39,4.15A8.88,8.88,0,0,0,54.89,32a9.6,9.6,0,0,0,2.47-7.57m-9.18,6.71c-3.19,0-5.43-2.35-5.43-5.74s2.22-5.8,5.4-5.8,5.48,2.3,5.48,5.74-2.22,5.8-5.45,5.8" />

    </g>
</svg>